<?xml version="1.0" encoding="UTF-8" standalone="no"?>
<!-- Created with Inkscape (http://www.inkscape.org/) -->

<svg
xmlns:dc="http://purl.org/dc/elements/1.1/"
xmlns:cc="http://creativecommons.org/ns#"
xmlns:rdf="http://www.w3.org/1999/02/22-rdf-syntax-ns#"
xmlns:svg="http://www.w3.org/2000/svg"
xmlns="http://www.w3.org/2000/svg"
xmlns:sodipodi="http://sodipodi.sourceforge.net/DTD/sodipodi-0.dtd"
xmlns:inkscape="http://www.inkscape.org/namespaces/inkscape"
width="964.1568"
height="714.59814"
id="svg2"
version="1.1"
inkscape:version="0.48.2 r9819"
sodipodi:docname="Doorbell Wiring Pictorial Diagram.svg">
<title
id="title4564">Doorbell Wiring Pictorial Diagram</title>
<defs
id="defs4" />
<sodipodi:namedview
id="base"
pagecolor="#ffffff"
bordercolor="#666666"
borderopacity="1.0"
inkscape:pageopacity="0.0"
inkscape:pageshadow="2"
inkscape:zoom="0.66978155"
inkscape:cx="274.54805"
inkscape:cy="346.75712"
inkscape:document-units="px"
inkscape:current-layer="layer1"
showgrid="false"
units="in"
inkscape:window-width="1024"
inkscape:window-height="689"
inkscape:window-x="0"
inkscape:window-y="27"
inkscape:window-maximized="1"
fit-margin-top="0"
fit-margin-left="0"
fit-margin-right="0"
fit-margin-bottom="0" />
<metadata
id="metadata7">
<rdf:RDF>
<cc:Work
rdf:about="">
<dc:format>image/svg+xml</dc:format>
<dc:type
rdf:resource="http://purl.org/dc/dcmitype/StillImage" />
<dc:title>Doorbell Wiring Pictorial Diagram</dc:title>
<dc:date>2013-11-13</dc:date>
<dc:creator>
<cc:Agent>
<dc:title>Hydrargyrum</dc:title>
</cc:Agent>
</dc:creator>
<dc:publisher>
<cc:Agent>
<dc:title>Wikimedia Foundation</dc:title>
</cc:Agent>
</dc:publisher>
<dc:description>Pictorial diagram of electric doorbell wiring with a dual-solenoid chime, front door pushbutton switch and back door pushbutton switch.</dc:description>
<dc:contributor>
<cc:Agent>
<dc:title>Based on a JPEG raster image contributed by user Adam850 on 2004-09-15.</dc:title>
</cc:Agent>
</dc:contributor>
</cc:Work>
</rdf:RDF>
</metadata>
<g
inkscape:label="Layer 1"
inkscape:groupmode="layer"
id="layer1"
transform="translate(130.73442,-175.48352)"
style="display:inline">
<rect
style="opacity:0;fill:#d7f4ee;fill-opacity:1;stroke:none"
id="rect3930"
width="964.1568"
height="714.59814"
x="-130.73442"
y="175.48352" />
<g
id="g4400">
<path
style="fill:none;stroke:#000000;stroke-width:12;stroke-linecap:butt;stroke-linejoin:miter;stroke-miterlimit:4;stroke-opacity:1;stroke-dasharray:none"
d="m 225.72515,253.85746 c -1.38932,-61.51535 -33.89676,-50.77427 -56.99596,-68.26988"
id="path4398"
inkscape:connector-curvature="0"
sodipodi:nodetypes="cc" />
<path
sodipodi:nodetypes="cc"
inkscape:connector-curvature="0"
id="path3059"
d="m 225.72515,253.85746 c -1.38932,-61.51535 -33.89676,-50.77427 -56.99596,-68.26988"
style="fill:none;stroke:#ffffff;stroke-width:10;stroke-linecap:butt;stroke-linejoin:miter;stroke-miterlimit:4;stroke-opacity:1;stroke-dasharray:none" />
</g>
<g
id="g4376"
transform="translate(-0.19448737,0)">
<path
inkscape:connector-curvature="0"
id="rect4242"
d="m 170.03629,610.39962 376.87338,0 0,261.15957 -376.87338,0 z"
style="fill:#ffffff;fill-opacity:1;stroke:#000000;stroke-width:3;stroke-linecap:round;stroke-linejoin:miter;stroke-miterlimit:4;stroke-opacity:1;stroke-dasharray:none;stroke-dashoffset:0" />
<path
inkscape:connector-curvature="0"
id="rect4171"
d="m 206.7121,844.71469 303.52176,0 0,14.94129 -303.52176,0 z"
style="fill:#5f8dd3;fill-opacity:1;stroke:#000000;stroke-width:3;stroke-linecap:round;stroke-linejoin:miter;stroke-miterlimit:4;stroke-opacity:1;stroke-dasharray:none;stroke-dashoffset:0;display:inline" />
<path
inkscape:connector-curvature="0"
id="rect4152"
d="m 189.84978,622.30282 337.2464,0 0,14.9413 -337.2464,0 z"
style="fill:#5f8dd3;fill-opacity:1;stroke:#000000;stroke-width:3;stroke-linecap:round;stroke-linejoin:miter;stroke-miterlimit:4;stroke-opacity:1;stroke-dasharray:none;stroke-dashoffset:0;display:inline" />
</g>
<path
style="fill:none;stroke:#000000;stroke-width:10;stroke-linecap:butt;stroke-linejoin:miter;stroke-miterlimit:4;stroke-opacity:1;stroke-dasharray:none"
d="M 190.33756,253.85746 C 188.94824,192.34211 156.4408,203.08319 133.3416,185.58758"
id="path4306"
inkscape:connector-curvature="0"
sodipodi:nodetypes="cc" />
<g
id="g4590">
<path
inkscape:connector-curvature="0"
id="rect4090"
d="m 297.14404,663.87273 22.33775,0 0,145.79809 -22.33775,0 z"
style="fill:#b3b3b3;fill-opacity:1;stroke:#000000;stroke-width:1;stroke-linecap:round;stroke-linejoin:miter;stroke-miterlimit:4;stroke-opacity:1;stroke-dasharray:none;stroke-dashoffset:0" />
<path
sodipodi:nodetypes="sccs"
inkscape:connector-curvature="0"
id="rect4092"
d="m 308.31292,648.47805 c 6.33982,0 11.16887,15.39468 11.16887,15.39468 l -22.33775,0 c 0,0 4.82906,-15.39468 11.16888,-15.39468 z"
style="fill:#000000;fill-opacity:1;stroke:#000000;stroke-width:0;stroke-linecap:round;stroke-linejoin:miter;stroke-miterlimit:4;stroke-opacity:1;stroke-dashoffset:0" />
<path
style="fill:#000000;fill-opacity:1;stroke:#000000;stroke-width:0;stroke-linecap:round;stroke-linejoin:miter;stroke-miterlimit:4;stroke-opacity:1;stroke-dashoffset:0"
d="m 308.31292,825.0655 c 6.33982,0 11.16887,-15.39468 11.16887,-15.39468 l -22.33775,0 c 0,0 4.82906,15.39468 11.16888,15.39468 z"
id="path4132"
inkscape:connector-curvature="0"
sodipodi:nodetypes="sccs" />
</g>
<g
id="g4677">
<g
style="fill:#000000;stroke:#000000;stroke-width:4.5;stroke-miterlimit:4;stroke-dasharray:none"
id="g4665"
transform="matrix(-1,0,0,-1,616.62584,1475.5418)">
<path
style="fill:#000000;stroke:#000000;stroke-width:4.5;stroke-linecap:round;stroke-linejoin:miter;stroke-miterlimit:4;stroke-opacity:1;stroke-dasharray:none"
d="m 295.16736,788.32897 26.29112,3.94861"
id="path4667"
inkscape:connector-curvature="0"
sodipodi:nodetypes="cc" />
<path
sodipodi:nodetypes="cc"
inkscape:connector-curvature="0"
id="path4669"
d="m 295.16736,794.71959 26.29112,3.94861"
style="fill:#000000;stroke:#000000;stroke-width:4.5;stroke-linecap:round;stroke-linejoin:miter;stroke-miterlimit:4;stroke-opacity:1;stroke-dasharray:none" />
<path
style="fill:#000000;stroke:#000000;stroke-width:4.5;stroke-linecap:round;stroke-linejoin:miter;stroke-miterlimit:4;stroke-opacity:1;stroke-dasharray:none"
d="m 295.16736,801.11023 26.29112,3.94861"
id="path4671"
inkscape:connector-curvature="0"
sodipodi:nodetypes="cc" />
<path
sodipodi:nodetypes="cc"
inkscape:connector-curvature="0"
id="path4673"
d="m 295.02048,808.39248 26.58488,0.24255"
style="fill:#000000;stroke:#000000;stroke-width:4.5;stroke-linecap:round;stroke-linejoin:miter;stroke-miterlimit:4;stroke-opacity:1;stroke-dasharray:none" />
<path
sodipodi:nodetypes="cc"
inkscape:connector-curvature="0"
id="path4675"
d="m 295.16736,781.93834 26.29112,3.94861"
style="fill:#000000;stroke:#000000;stroke-width:4.5;stroke-linecap:round;stroke-linejoin:miter;stroke-miterlimit:4;stroke-opacity:1;stroke-dasharray:none" />
</g>
<g
transform="matrix(-1,0,0,-1,616.62584,1475.5418)"
id="g4194">
<path
sodipodi:nodetypes="cc"
inkscape:connector-curvature="0"
id="path4196"
d="m 295.16736,788.32897 26.29112,3.94861"
style="fill:#ffff00;stroke:#ffff00;stroke-width:3.5;stroke-linecap:round;stroke-linejoin:miter;stroke-miterlimit:4;stroke-opacity:1;stroke-dasharray:none" />
<path
style="fill:#ffff00;stroke:#ffff00;stroke-width:3.5;stroke-linecap:round;stroke-linejoin:miter;stroke-miterlimit:4;stroke-opacity:1;stroke-dasharray:none"
d="m 295.16736,794.71959 26.29112,3.94861"
id="path4198"
inkscape:connector-curvature="0"
sodipodi:nodetypes="cc" />
<path
sodipodi:nodetypes="cc"
inkscape:connector-curvature="0"
id="path4200"
d="m 295.16736,801.11023 26.29112,3.94861"
style="fill:#ffff00;stroke:#ffff00;stroke-width:3.5;stroke-linecap:round;stroke-linejoin:miter;stroke-miterlimit:4;stroke-opacity:1;stroke-dasharray:none" />
<path
style="fill:#ffff00;stroke:#ffff00;stroke-width:3.5;stroke-linecap:round;stroke-linejoin:miter;stroke-miterlimit:4;stroke-opacity:1;stroke-dasharray:none"
d="m 295.02048,808.39248 26.58488,0.24255"
id="path4202"
inkscape:connector-curvature="0"
sodipodi:nodetypes="cc" />
<path
style="fill:#ffff00;stroke:#ffff00;stroke-width:3.5;stroke-linecap:round;stroke-linejoin:miter;stroke-miterlimit:4;stroke-opacity:1;stroke-dasharray:none"
d="m 295.16736,781.93834 26.29112,3.94861"
id="path4204"
inkscape:connector-curvature="0"
sodipodi:nodetypes="cc" />
</g>
</g>
<g
id="g4595">
<path
style="fill:#b3b3b3;fill-opacity:1;stroke:#000000;stroke-width:1;stroke-linecap:round;stroke-linejoin:miter;stroke-miterlimit:4;stroke-opacity:1;stroke-dasharray:none;stroke-dashoffset:0"
d="m 397.46416,663.87273 22.33775,0 0,145.79809 -22.33775,0 z"
id="path4141"
inkscape:connector-curvature="0" />
<path
sodipodi:nodetypes="sccs"
inkscape:connector-curvature="0"
id="path4145"
d="m 408.63304,825.0655 c 6.33982,0 11.16887,-15.39468 11.16887,-15.39468 l -22.33775,0 c 0,0 4.82906,15.39468 11.16888,15.39468 z"
style="fill:#000000;fill-opacity:1;stroke:#000000;stroke-width:0;stroke-linecap:round;stroke-linejoin:miter;stroke-miterlimit:4;stroke-opacity:1;stroke-dashoffset:0" />
</g>
<g
id="g4691"
transform="translate(100.32012,0)">
<g
transform="matrix(-1,0,0,-1,616.62584,1475.5418)"
id="g4693"
style="fill:#000000;stroke:#000000;stroke-width:4.5;stroke-miterlimit:4;stroke-dasharray:none">
<path
sodipodi:nodetypes="cc"
inkscape:connector-curvature="0"
id="path4695"
d="m 295.16736,788.32897 26.29112,3.94861"
style="fill:#000000;stroke:#000000;stroke-width:4.5;stroke-linecap:round;stroke-linejoin:miter;stroke-miterlimit:4;stroke-opacity:1;stroke-dasharray:none" />
<path
style="fill:#000000;stroke:#000000;stroke-width:4.5;stroke-linecap:round;stroke-linejoin:miter;stroke-miterlimit:4;stroke-opacity:1;stroke-dasharray:none"
d="m 295.16736,794.71959 26.29112,3.94861"
id="path4697"
inkscape:connector-curvature="0"
sodipodi:nodetypes="cc" />
<path
sodipodi:nodetypes="cc"
inkscape:connector-curvature="0"
id="path4699"
d="m 295.16736,801.11023 26.29112,3.94861"
style="fill:#000000;stroke:#000000;stroke-width:4.5;stroke-linecap:round;stroke-linejoin:miter;stroke-miterlimit:4;stroke-opacity:1;stroke-dasharray:none" />
<path
style="fill:#000000;stroke:#000000;stroke-width:4.5;stroke-linecap:round;stroke-linejoin:miter;stroke-miterlimit:4;stroke-opacity:1;stroke-dasharray:none"
d="m 295.02048,808.39248 26.58488,0.24255"
id="path4701"
inkscape:connector-curvature="0"
sodipodi:nodetypes="cc" />
<path
style="fill:#000000;stroke:#000000;stroke-width:4.5;stroke-linecap:round;stroke-linejoin:miter;stroke-miterlimit:4;stroke-opacity:1;stroke-dasharray:none"
d="m 295.16736,781.93834 26.29112,3.94861"
id="path4703"
inkscape:connector-curvature="0"
sodipodi:nodetypes="cc" />
</g>
<g
id="g4705"
transform="matrix(-1,0,0,-1,616.62584,1475.5418)">
<path
style="fill:#ffff00;stroke:#ffff00;stroke-width:3.5;stroke-linecap:round;stroke-linejoin:miter;stroke-miterlimit:4;stroke-opacity:1;stroke-dasharray:none"
d="m 295.16736,788.32897 26.29112,3.94861"
id="path4707"
inkscape:connector-curvature="0"
sodipodi:nodetypes="cc" />
<path
sodipodi:nodetypes="cc"
inkscape:connector-curvature="0"
id="path4709"
d="m 295.16736,794.71959 26.29112,3.94861"
style="fill:#ffff00;stroke:#ffff00;stroke-width:3.5;stroke-linecap:round;stroke-linejoin:miter;stroke-miterlimit:4;stroke-opacity:1;stroke-dasharray:none" />
<path
style="fill:#ffff00;stroke:#ffff00;stroke-width:3.5;stroke-linecap:round;stroke-linejoin:miter;stroke-miterlimit:4;stroke-opacity:1;stroke-dasharray:none"
d="m 295.16736,801.11023 26.29112,3.94861"
id="path4711"
inkscape:connector-curvature="0"
sodipodi:nodetypes="cc" />
<path
sodipodi:nodetypes="cc"
inkscape:connector-curvature="0"
id="path4713"
d="m 295.02048,808.39248 26.58488,0.24255"
style="fill:#ffff00;stroke:#ffff00;stroke-width:3.5;stroke-linecap:round;stroke-linejoin:miter;stroke-miterlimit:4;stroke-opacity:1;stroke-dasharray:none" />
<path
sodipodi:nodetypes="cc"
inkscape:connector-curvature="0"
id="path4715"
d="m 295.16736,781.93834 26.29112,3.94861"
style="fill:#ffff00;stroke:#ffff00;stroke-width:3.5;stroke-linecap:round;stroke-linejoin:miter;stroke-miterlimit:4;stroke-opacity:1;stroke-dasharray:none" />
</g>
</g>
<rect
style="fill:#808000;fill-opacity:1;stroke:none"
id="rect3934"
width="184.93185"
height="100.50644"
x="266.00705"
y="624.15656"
transform="translate(0,62.362)" />
<g
style="font-size:24px;font-style:normal;font-variant:normal;font-weight:normal;font-stretch:normal;text-align:start;line-height:125%;letter-spacing:0px;word-spacing:0px;writing-mode:lr-tb;text-anchor:start;fill:#000000;fill-opacity:1;stroke:none;font-family:Helvetica Neue;-inkscape-font-specification:Sans"
id="text3865">
<path
d="m 499.42834,303.88084 0,17.752 2.66,0 0,-17.752 6.664,0 0,-2.24 -15.988,0 0,2.24 6.664,0"
style="font-size:28px"
id="path4486"
inkscape:connector-curvature="0" />
<path
d="m 510.97047,301.64084 0,19.992 2.66,0 0,-8.54 6.496,0 c 0.65332,10e-6 1.17599,0.10268 1.568,0.308 0.39199,0.18668 0.70932,0.44801 0.952,0.784 0.24265,0.31734 0.41998,0.70001 0.532,1.148 0.11198,0.42934 0.20532,0.88668 0.28,1.372 0.0933,0.48534 0.14932,0.98001 0.168,1.484 0.0186,0.50401 0.0373,0.98001 0.056,1.428 0.0186,0.42934 0.056,0.82134 0.112,1.176 0.0746,0.35467 0.20532,0.63467 0.392,0.84 l 2.968,0 c -0.28002,-0.336 -0.49469,-0.71866 -0.644,-1.148 -0.13069,-0.448 -0.23335,-0.91466 -0.308,-1.4 -0.0747,-0.48533 -0.12135,-0.97999 -0.14,-1.484 -0.0187,-0.50399 -0.0467,-0.99866 -0.084,-1.484 -0.056,-0.48532 -0.14002,-0.95199 -0.252,-1.4 -0.0933,-0.44799 -0.25202,-0.84932 -0.476,-1.204 -0.20535,-0.37332 -0.49468,-0.69065 -0.868,-0.952 -0.35468,-0.26132 -0.82135,-0.44799 -1.4,-0.56 l 0,-0.056 c 1.21332,-0.33599 2.09065,-0.96132 2.632,-1.876 0.55998,-0.91465 0.83998,-1.97865 0.84,-3.192 -2e-5,-1.62398 -0.54135,-2.90265 -1.624,-3.836 -1.06402,-0.93331 -2.54801,-1.39998 -4.452,-1.4 l -9.408,0 m 8.204,9.212 -5.544,0 0,-6.972 6.608,0 c 1.25065,2e-5 2.15598,0.31735 2.716,0.952 0.55998,0.63469 0.83998,1.45602 0.84,2.464 -2e-5,0.72802 -0.13068,1.32535 -0.392,1.792 -0.24268,0.44802 -0.57868,0.81201 -1.008,1.092 -0.41068,0.26135 -0.89601,0.43868 -1.456,0.532 -0.56001,0.0933 -1.14801,0.14001 -1.764,0.14"
style="font-size:28px"
id="path4488"
inkscape:connector-curvature="0" />
<path
d="m 533.60978,313.37284 3.388,-9.324 0.056,0 3.332,9.324 -6.776,0 m 1.988,-11.732 -7.784,19.992 2.716,0 2.24,-6.02 8.456,0 2.184,6.02 2.94,0 -7.812,-19.992 -2.94,0"
style="font-size:28px"
id="path4490"
inkscape:connector-curvature="0" />
<path
d="m 548.29403,301.64084 0,19.992 2.52,0 0,-16.044 0.056,0 10.444,16.044 2.912,0 0,-19.992 -2.52,0 0,16.212 -0.056,0 -10.528,-16.212 -2.828,0"
style="font-size:28px"
id="path4492"
inkscape:connector-curvature="0" />
<path
d="m 580.12041,307.49284 2.52,0 c -0.0373,-1.10132 -0.25202,-2.04398 -0.644,-2.828 -0.37335,-0.80265 -0.89602,-1.46531 -1.568,-1.988 -0.65335,-0.52264 -1.41868,-0.90531 -2.296,-1.148 -0.87735,-0.24264 -1.82935,-0.36398 -2.856,-0.364 -0.91468,2e-5 -1.81068,0.12136 -2.688,0.364 -0.85868,0.22402 -1.63334,0.57869 -2.324,1.064 -0.67201,0.46669 -1.21334,1.07335 -1.624,1.82 -0.41067,0.72802 -0.61601,1.59602 -0.616,2.604 -10e-6,0.91468 0.17733,1.68002 0.532,2.296 0.37333,0.59735 0.85866,1.09201 1.456,1.484 0.61599,0.37335 1.30666,0.68135 2.072,0.924 0.76532,0.22401 1.53999,0.42935 2.324,0.616 0.80265,0.16801 1.58665,0.33601 2.352,0.504 0.76532,0.16801 1.44665,0.39201 2.044,0.672 0.61598,0.26134 1.10132,0.60668 1.456,1.036 0.37332,0.42934 0.55998,0.98934 0.56,1.68 -2e-5,0.72801 -0.14935,1.32534 -0.448,1.792 -0.29868,0.46667 -0.69068,0.84001 -1.176,1.12 -0.48535,0.26134 -1.03602,0.44801 -1.652,0.56 -0.59735,0.112 -1.19468,0.168 -1.792,0.168 -0.74668,0 -1.47468,-0.0933 -2.184,-0.28 -0.70934,-0.18666 -1.33468,-0.47599 -1.876,-0.868 -0.52268,-0.39199 -0.95201,-0.88666 -1.288,-1.484 -0.31734,-0.61599 -0.47601,-1.34399 -0.476,-2.184 l -2.52,0 c -10e-6,1.21334 0.21466,2.26801 0.644,3.164 0.44799,0.87734 1.04533,1.60534 1.792,2.184 0.76533,0.56 1.64266,0.98 2.632,1.26 1.00799,0.28 2.07199,0.42 3.192,0.42 0.91465,0 1.82932,-0.112 2.744,-0.336 0.93332,-0.20533 1.77332,-0.54133 2.52,-1.008 0.74665,-0.48533 1.35331,-1.10133 1.82,-1.848 0.48531,-0.76533 0.72798,-1.67999 0.728,-2.744 -2e-5,-0.98932 -0.18669,-1.81066 -0.56,-2.464 -0.35469,-0.65332 -0.84002,-1.19465 -1.456,-1.624 -0.59735,-0.42932 -1.27868,-0.76532 -2.044,-1.008 -0.76535,-0.26132 -1.54935,-0.48532 -2.352,-0.672 -0.78401,-0.18665 -1.55868,-0.35465 -2.324,-0.504 -0.76534,-0.16799 -1.45601,-0.37332 -2.072,-0.616 -0.59734,-0.24265 -1.08268,-0.55065 -1.456,-0.924 -0.35468,-0.39198 -0.53201,-0.89598 -0.532,-1.512 -10e-6,-0.65331 0.12132,-1.19465 0.364,-1.624 0.26132,-0.44798 0.59732,-0.80265 1.008,-1.064 0.42932,-0.26131 0.91466,-0.44798 1.456,-0.56 0.54132,-0.11198 1.09199,-0.16798 1.652,-0.168 1.38132,2e-5 2.51065,0.32669 3.388,0.98 0.89598,0.63469 1.41865,1.67069 1.568,3.108"
style="font-size:28px"
id="path4494"
inkscape:connector-curvature="0" />
<path
d="m 586.71266,301.64084 0,19.992 2.66,0 0,-9.156 9.184,0 0,-2.24 -9.184,0 0,-6.356 10.472,0 0,-2.24 -13.132,0"
style="font-size:28px"
id="path4496"
inkscape:connector-curvature="0" />
<path
d="m 604.33078,311.63684 c 0,-1.00799 0.13066,-1.99732 0.392,-2.968 0.26133,-0.98932 0.672,-1.87598 1.232,-2.66 0.56,-0.78398 1.27866,-1.40931 2.156,-1.876 0.87733,-0.48531 1.92266,-0.72798 3.136,-0.728 1.21332,2e-5 2.25865,0.24269 3.136,0.728 0.87732,0.46669 1.59599,1.09202 2.156,1.876 0.55998,0.78402 0.97065,1.67068 1.232,2.66 0.26132,0.97068 0.39198,1.96001 0.392,2.968 -2e-5,1.00801 -0.13068,2.00668 -0.392,2.996 -0.26135,0.97068 -0.67202,1.84801 -1.232,2.632 -0.56001,0.78401 -1.27868,1.41867 -2.156,1.904 -0.87735,0.46667 -1.92268,0.7 -3.136,0.7 -1.21334,0 -2.25867,-0.23333 -3.136,-0.7 -0.87734,-0.48533 -1.596,-1.11999 -2.156,-1.904 -0.56,-0.78399 -0.97067,-1.66132 -1.232,-2.632 -0.26134,-0.98932 -0.392,-1.98799 -0.392,-2.996 m -2.66,0 c 0,1.36268 0.196,2.67868 0.588,3.948 0.41067,1.25067 1.01733,2.36134 1.82,3.332 0.80266,0.97067 1.80133,1.74534 2.996,2.324 1.19466,0.56 2.58533,0.84 4.172,0.84 1.58666,0 2.97732,-0.28 4.172,-0.84 1.19465,-0.57866 2.19332,-1.35333 2.996,-2.324 0.80265,-0.97066 1.39998,-2.08133 1.792,-3.332 0.41065,-1.26932 0.61598,-2.58532 0.616,-3.948 -2e-5,-1.36265 -0.20535,-2.66932 -0.616,-3.92 -0.39202,-1.26932 -0.98935,-2.38931 -1.792,-3.36 -0.80268,-0.97065 -1.80135,-1.74531 -2.996,-2.324 -1.19468,-0.57864 -2.58534,-0.86798 -4.172,-0.868 -1.58667,2e-5 -2.97734,0.28936 -4.172,0.868 -1.19467,0.57869 -2.19334,1.35335 -2.996,2.324 -0.80267,0.97069 -1.40933,2.09068 -1.82,3.36 -0.392,1.25068 -0.588,2.55735 -0.588,3.92"
style="font-size:28px"
id="path4498"
inkscape:connector-curvature="0" />
<path
d="m 624.06422,301.64084 0,19.992 2.66,0 0,-8.54 6.496,0 c 0.65332,10e-6 1.17599,0.10268 1.568,0.308 0.39199,0.18668 0.70932,0.44801 0.952,0.784 0.24265,0.31734 0.41998,0.70001 0.532,1.148 0.11198,0.42934 0.20532,0.88668 0.28,1.372 0.0933,0.48534 0.14932,0.98001 0.168,1.484 0.0186,0.50401 0.0373,0.98001 0.056,1.428 0.0186,0.42934 0.056,0.82134 0.112,1.176 0.0746,0.35467 0.20532,0.63467 0.392,0.84 l 2.968,0 c -0.28002,-0.336 -0.49469,-0.71866 -0.644,-1.148 -0.13069,-0.448 -0.23335,-0.91466 -0.308,-1.4 -0.0747,-0.48533 -0.12135,-0.97999 -0.14,-1.484 -0.0187,-0.50399 -0.0467,-0.99866 -0.084,-1.484 -0.056,-0.48532 -0.14002,-0.95199 -0.252,-1.4 -0.0933,-0.44799 -0.25202,-0.84932 -0.476,-1.204 -0.20535,-0.37332 -0.49468,-0.69065 -0.868,-0.952 -0.35468,-0.26132 -0.82135,-0.44799 -1.4,-0.56 l 0,-0.056 c 1.21332,-0.33599 2.09065,-0.96132 2.632,-1.876 0.55998,-0.91465 0.83998,-1.97865 0.84,-3.192 -2e-5,-1.62398 -0.54135,-2.90265 -1.624,-3.836 -1.06402,-0.93331 -2.54801,-1.39998 -4.452,-1.4 l -9.408,0 m 8.204,9.212 -5.544,0 0,-6.972 6.608,0 c 1.25065,2e-5 2.15598,0.31735 2.716,0.952 0.55998,0.63469 0.83998,1.45602 0.84,2.464 -2e-5,0.72802 -0.13068,1.32535 -0.392,1.792 -0.24268,0.44802 -0.57868,0.81201 -1.008,1.092 -0.41068,0.26135 -0.89601,0.43868 -1.456,0.532 -0.56001,0.0933 -1.14801,0.14001 -1.764,0.14"
style="font-size:28px"
id="path4500"
inkscape:connector-curvature="0" />
<path
d="m 643.31553,301.64084 0,19.992 2.52,0 0,-16.632 0.056,0 6.244,16.632 2.268,0 6.244,-16.632 0.056,0 0,16.632 2.52,0 0,-19.992 -3.64,0 -6.328,16.8 -6.3,-16.8 -3.64,0"
style="font-size:28px"
id="path4502"
inkscape:connector-curvature="0" />
<path
d="m 667.65016,301.64084 0,19.992 13.888,0 0,-2.24 -11.228,0 0,-6.916 10.388,0 0,-2.24 -10.388,0 0,-6.356 11.144,0 0,-2.24 -13.804,0"
style="font-size:28px"
id="path4504"
inkscape:connector-curvature="0" />
<path
d="m 684.76734,301.64084 0,19.992 2.66,0 0,-8.54 6.496,0 c 0.65332,10e-6 1.17599,0.10268 1.568,0.308 0.39199,0.18668 0.70932,0.44801 0.952,0.784 0.24266,0.31734 0.41999,0.70001 0.532,1.148 0.11199,0.42934 0.20532,0.88668 0.28,1.372 0.0933,0.48534 0.14932,0.98001 0.168,1.484 0.0187,0.50401 0.0373,0.98001 0.056,1.428 0.0187,0.42934 0.056,0.82134 0.112,1.176 0.0747,0.35467 0.20532,0.63467 0.392,0.84 l 2.968,0 c -0.28001,-0.336 -0.49468,-0.71866 -0.644,-1.148 -0.13068,-0.448 -0.23335,-0.91466 -0.308,-1.4 -0.0747,-0.48533 -0.12135,-0.97999 -0.14,-1.484 -0.0187,-0.50399 -0.0467,-0.99866 -0.084,-1.484 -0.056,-0.48532 -0.14001,-0.95199 -0.252,-1.4 -0.0933,-0.44799 -0.25201,-0.84932 -0.476,-1.204 -0.20535,-0.37332 -0.49468,-0.69065 -0.868,-0.952 -0.35468,-0.26132 -0.82134,-0.44799 -1.4,-0.56 l 0,-0.056 c 1.21332,-0.33599 2.09065,-0.96132 2.632,-1.876 0.55999,-0.91465 0.83999,-1.97865 0.84,-3.192 -10e-6,-1.62398 -0.54135,-2.90265 -1.624,-3.836 -1.06401,-0.93331 -2.54801,-1.39998 -4.452,-1.4 l -9.408,0 m 8.204,9.212 -5.544,0 0,-6.972 6.608,0 c 1.25066,2e-5 2.15599,0.31735 2.716,0.952 0.55999,0.63469 0.83999,1.45602 0.84,2.464 -10e-6,0.72802 -0.13068,1.32535 -0.392,1.792 -0.24268,0.44802 -0.57868,0.81201 -1.008,1.092 -0.41068,0.26135 -0.89601,0.43868 -1.456,0.532 -0.56001,0.0933 -1.14801,0.14001 -1.764,0.14"
style="font-size:28px"
id="path4506"
inkscape:connector-curvature="0" />
</g>
<g
id="g4381">
<path
inkscape:transform-center-y="-15.64065"
inkscape:transform-center-x="-19.72908"
style="fill:#000000;fill-opacity:1;stroke:none"
d="m 351.43784,401.01139 5.20807,7.50105 5.20807,7.50106 -39.45816,16.2792 z"
id="path3873"
inkscape:connector-curvature="0"
sodipodi:nodetypes="ccccc" />
<path
sodipodi:nodetypes="ccc"
transform="translate(0,62.362)"
inkscape:connector-curvature="0"
id="path3875"
d="m 356.25,346.77083 16.40625,-11.91406 C 479.3509,269.47476 342.3327,282.29286 487.5,251.45833"
style="fill:none;stroke:#000000;stroke-width:3;stroke-linecap:butt;stroke-linejoin:miter;stroke-miterlimit:4;stroke-opacity:1;stroke-dasharray:none" />
</g>
<path
sodipodi:nodetypes="ccccc"
inkscape:connector-curvature="0"
id="path3888"
d="m 318.18413,204.1265 0,9.1318 0,9.13181 -41.69615,-9.1318 z"
style="fill:#000000;fill-opacity:1;stroke:none" />
<path
style="fill:none;stroke:#000000;stroke-width:3;stroke-linecap:butt;stroke-linejoin:miter;stroke-miterlimit:4;stroke-opacity:1;stroke-dasharray:none"
d="m 314.24729,213.2583 0,0 118.23687,0"
id="path3890"
inkscape:connector-curvature="0"
sodipodi:nodetypes="ccc" />
<g
style="font-size:24px;font-style:normal;font-variant:normal;font-weight:normal;font-stretch:normal;text-align:start;line-height:125%;letter-spacing:0px;word-spacing:0px;writing-mode:lr-tb;text-anchor:start;fill:#000000;fill-opacity:1;stroke:none;font-family:Helvetica Neue;-inkscape-font-specification:Sans"
id="text3892">
<path
d="m 451.0416,215.0083 3.388,-9.324 0.056,0 3.332,9.324 -6.776,0 m 1.988,-11.732 -7.784,19.992 2.716,0 2.24,-6.02 8.456,0 2.184,6.02 2.94,0 -7.812,-19.992 -2.94,0"
style="font-size:28px"
id="path4509"
inkscape:connector-curvature="0" />
<path
d="m 479.80985,209.2963 2.66,0 c -0.14935,-1.06399 -0.46668,-1.99732 -0.952,-2.8 -0.48535,-0.82132 -1.09201,-1.50265 -1.82,-2.044 -0.72801,-0.54132 -1.55868,-0.95198 -2.492,-1.232 -0.93334,-0.27998 -1.92267,-0.41998 -2.968,-0.42 -1.53067,2e-5 -2.89334,0.28002 -4.088,0.84 -1.176,0.54135 -2.16533,1.28801 -2.968,2.24 -0.784,0.95201 -1.38133,2.07201 -1.792,3.36 -0.41066,1.26934 -0.616,2.63201 -0.616,4.088 0,1.456 0.18667,2.81867 0.56,4.088 0.392,1.26933 0.97067,2.37067 1.736,3.304 0.76533,0.93333 1.72667,1.67066 2.884,2.212 1.15733,0.52266 2.51066,0.78399 4.06,0.784 2.55733,-1e-5 4.57332,-0.7 6.048,-2.1 1.47465,-1.4 2.34265,-3.36 2.604,-5.88 l -2.66,0 c -0.056,0.82134 -0.22401,1.58667 -0.504,2.296 -0.28001,0.70933 -0.67201,1.32533 -1.176,1.848 -0.48534,0.504 -1.07334,0.90533 -1.764,1.204 -0.67201,0.28 -1.44667,0.42 -2.324,0.42 -1.19467,0 -2.22134,-0.224 -3.08,-0.672 -0.85867,-0.448 -1.568,-1.04533 -2.128,-1.792 -0.54133,-0.76533 -0.94267,-1.652 -1.204,-2.66 -0.26133,-1.02666 -0.392,-2.10933 -0.392,-3.248 0,-1.04533 0.13067,-2.05333 0.392,-3.024 0.26133,-0.97066 0.66267,-1.82932 1.204,-2.576 0.56,-0.76532 1.26,-1.37199 2.1,-1.82 0.85866,-0.44799 1.88533,-0.67199 3.08,-0.672 1.39999,1e-5 2.60399,0.35468 3.612,1.064 1.02666,0.70935 1.68932,1.77334 1.988,3.192"
style="font-size:28px"
id="path4511"
inkscape:connector-curvature="0" />
<path
d="m 493.80985,203.2763 0,19.992 2.52,0 0,-16.632 0.056,0 6.244,16.632 2.268,0 6.244,-16.632 0.056,0 0,16.632 2.52,0 0,-19.992 -3.64,0 -6.328,16.8 -6.3,-16.8 -3.64,0"
style="font-size:28px"
id="path4513"
inkscape:connector-curvature="0" />
<path
d="m 521.58848,215.0083 3.388,-9.324 0.056,0 3.332,9.324 -6.776,0 m 1.988,-11.732 -7.784,19.992 2.716,0 2.24,-6.02 8.456,0 2.184,6.02 2.94,0 -7.812,-19.992 -2.94,0"
style="font-size:28px"
id="path4515"
inkscape:connector-curvature="0" />
<path
d="m 536.41273,203.2763 0,19.992 2.66,0 0,-19.992 -2.66,0"
style="font-size:28px"
id="path4517"
inkscape:connector-curvature="0" />
<path
d="m 543.54617,203.2763 0,19.992 2.52,0 0,-16.044 0.056,0 10.444,16.044 2.912,0 0,-19.992 -2.52,0 0,16.212 -0.056,0 -10.528,-16.212 -2.828,0"
style="font-size:28px"
id="path4519"
inkscape:connector-curvature="0" />
<path
d="m 575.37254,209.1283 2.52,0 c -0.0374,-1.10132 -0.25201,-2.04399 -0.644,-2.828 -0.37335,-0.80265 -0.89601,-1.46532 -1.568,-1.988 -0.65334,-0.52265 -1.41868,-0.90532 -2.296,-1.148 -0.87734,-0.24265 -1.82934,-0.36398 -2.856,-0.364 -0.91467,2e-5 -1.81067,0.12135 -2.688,0.364 -0.85867,0.22402 -1.63334,0.57868 -2.324,1.064 -0.672,0.46668 -1.21333,1.07335 -1.624,1.82 -0.41067,0.72801 -0.616,1.59601 -0.616,2.604 0,0.91468 0.17733,1.68001 0.532,2.296 0.37333,0.59734 0.85867,1.09201 1.456,1.484 0.616,0.37334 1.30666,0.68134 2.072,0.924 0.76533,0.224 1.53999,0.42934 2.324,0.616 0.80266,0.168 1.58666,0.336 2.352,0.504 0.76532,0.168 1.44666,0.392 2.044,0.672 0.61599,0.26134 1.10132,0.60667 1.456,1.036 0.37332,0.42934 0.55999,0.98933 0.56,1.68 -10e-6,0.728 -0.14935,1.32533 -0.448,1.792 -0.29868,0.46667 -0.69068,0.84 -1.176,1.12 -0.48534,0.26133 -1.03601,0.448 -1.652,0.56 -0.59734,0.112 -1.19467,0.168 -1.792,0.168 -0.74667,0 -1.47467,-0.0933 -2.184,-0.28 -0.70934,-0.18667 -1.33467,-0.476 -1.876,-0.868 -0.52267,-0.392 -0.952,-0.88667 -1.288,-1.484 -0.31733,-0.616 -0.476,-1.344 -0.476,-2.184 l -2.52,0 c 0,1.21333 0.21467,2.268 0.644,3.164 0.448,0.87733 1.04533,1.60533 1.792,2.184 0.76533,0.56 1.64266,0.98 2.632,1.26 1.008,0.27999 2.07199,0.41999 3.192,0.42 0.91466,-1e-5 1.82932,-0.11201 2.744,-0.336 0.93332,-0.20534 1.77332,-0.54134 2.52,-1.008 0.74665,-0.48534 1.35332,-1.10134 1.82,-1.848 0.48532,-0.76533 0.72799,-1.68 0.728,-2.744 -10e-6,-0.98933 -0.18668,-1.81066 -0.56,-2.464 -0.35468,-0.65333 -0.84001,-1.19466 -1.456,-1.624 -0.59735,-0.42933 -1.27868,-0.76533 -2.044,-1.008 -0.76534,-0.26133 -1.54934,-0.48533 -2.352,-0.672 -0.78401,-0.18666 -1.55867,-0.35466 -2.324,-0.504 -0.76534,-0.16799 -1.456,-0.37333 -2.072,-0.616 -0.59734,-0.24266 -1.08267,-0.55066 -1.456,-0.924 -0.35467,-0.39199 -0.532,-0.89599 -0.532,-1.512 0,-0.65332 0.12133,-1.19466 0.364,-1.624 0.26133,-0.44799 0.59733,-0.80265 1.008,-1.064 0.42933,-0.26132 0.91466,-0.44799 1.456,-0.56 0.54133,-0.11199 1.09199,-0.16799 1.652,-0.168 1.38133,1e-5 2.51066,0.32668 3.388,0.98 0.89599,0.63468 1.41866,1.67068 1.568,3.108"
style="font-size:28px"
id="path4521"
inkscape:connector-curvature="0" />
<path
d="m 589.84242,203.2763 0,19.992 2.66,0 0,-19.992 -2.66,0"
style="font-size:28px"
id="path4523"
inkscape:connector-curvature="0" />
<path
d="m 596.97585,203.2763 0,19.992 2.52,0 0,-16.044 0.056,0 10.444,16.044 2.912,0 0,-19.992 -2.52,0 0,16.212 -0.056,0 -10.528,-16.212 -2.828,0"
style="font-size:28px"
id="path4525"
inkscape:connector-curvature="0" />
<path
d="m 619.89823,212.8523 0,-7.336 5.208,0 c 1.51199,1e-5 2.61332,0.31735 3.304,0.952 0.70932,0.61601 1.06399,1.52134 1.064,2.716 -1e-5,1.19467 -0.35468,2.10934 -1.064,2.744 -0.69068,0.63467 -1.79201,0.94267 -3.304,0.924 l -5.208,0 m -2.66,-9.576 0,19.992 2.66,0 0,-8.176 6.104,0 c 2.01599,0.0187 3.53732,-0.49466 4.564,-1.54 1.04532,-1.04533 1.56798,-2.50133 1.568,-4.368 -2e-5,-1.86666 -0.52268,-3.31332 -1.568,-4.34 -1.02668,-1.04532 -2.54801,-1.56798 -4.564,-1.568 l -8.764,0"
style="font-size:28px"
id="path4527"
inkscape:connector-curvature="0" />
<path
d="m 651.35448,216.0443 0,-12.768 -2.66,0 0,12.768 c -2e-5,1.792 -0.44802,3.15467 -1.344,4.088 -0.87735,0.91466 -2.16535,1.372 -3.864,1.372 -1.79201,0 -3.16401,-0.45734 -4.116,-1.372 -0.95201,-0.93333 -1.428,-2.296 -1.428,-4.088 l 0,-12.768 -2.66,0 0,12.768 c 0,2.66933 0.71866,4.62 2.156,5.852 1.45599,1.21333 3.47199,1.81999 6.048,1.82 2.51999,-1e-5 4.46132,-0.63467 5.824,-1.904 1.36265,-1.288 2.04398,-3.21067 2.044,-5.768"
style="font-size:28px"
id="path4529"
inkscape:connector-curvature="0" />
<path
d="m 660.16485,205.5163 0,17.752 2.66,0 0,-17.752 6.664,0 0,-2.24 -15.988,0 0,2.24 6.664,0"
style="font-size:28px"
id="path4531"
inkscape:connector-curvature="0" />
</g>
<g
id="g4429">
<path
style="fill:none;stroke:#000000;stroke-width:12;stroke-linecap:butt;stroke-linejoin:miter;stroke-miterlimit:4;stroke-opacity:1;stroke-dasharray:none"
d="m 61.329382,439.61091 c 40.459738,0.4502 20.592391,50.5763 60.088708,80.49761 16.15811,13.34828 43.53481,17.61382 59.70428,7.65952 10.48924,-9.66414 15.66009,-25.17089 22.94708,-36.05429"
id="path4385"
inkscape:connector-curvature="0"
sodipodi:nodetypes="cccc" />
<path
sodipodi:nodetypes="cccc"
inkscape:connector-curvature="0"
id="path3922"
d="m 61.329382,439.61091 c 40.459738,0.4502 20.592391,50.5763 60.088708,80.49761 16.15811,13.34828 43.53481,17.61382 59.70428,7.65952 10.48924,-9.66414 15.66009,-25.17089 22.94708,-36.05429"
style="fill:none;stroke:#ff0000;stroke-width:10;stroke-linecap:butt;stroke-linejoin:miter;stroke-miterlimit:4;stroke-opacity:1;stroke-dasharray:none" />
</g>
<g
id="g4425"
transform="translate(18.08387,72.78757)">
<path
style="fill:none;stroke:#000000;stroke-width:12;stroke-linecap:butt;stroke-linejoin:miter;stroke-miterlimit:4;stroke-opacity:1;stroke-dasharray:none"
d="m 243.02889,181.06989 c -1.38932,-61.51535 -33.89676,-50.77427 -56.99596,-68.26988"
id="path4418"
inkscape:connector-curvature="0"
sodipodi:nodetypes="cc" />
<path
sodipodi:nodetypes="cc"
inkscape:connector-curvature="0"
id="path4420"
d="m 243.02889,181.06989 c -1.38932,-61.51535 -33.89676,-50.77427 -56.99596,-68.26988"
style="fill:none;stroke:#ff6600;stroke-width:10;stroke-linecap:butt;stroke-linejoin:miter;stroke-miterlimit:4;stroke-opacity:1;stroke-dasharray:none" />
</g>
<rect
style="fill:#b3b3b3;fill-opacity:1;stroke:#000000;stroke-width:3;stroke-linecap:round;stroke-linejoin:miter;stroke-miterlimit:4;stroke-opacity:1;stroke-dasharray:none;stroke-dashoffset:0"
id="rect3057"
width="246.14735"
height="114.61823"
x="105.72821"
y="252.48633"
ry="0" />
<rect
style="fill:#a05a2c;fill-opacity:1;stroke:#000000;stroke-width:2;stroke-miterlimit:4;stroke-dasharray:none"
id="rect3942"
width="108.28111"
height="52.358383"
x="275.70786"
y="708.65161" />
<path
style="fill:none;stroke:#000000;stroke-width:10;stroke-linecap:butt;stroke-linejoin:miter;stroke-miterlimit:4;stroke-opacity:1;stroke-dasharray:none"
d="M 60.303865,466.69646 C 248.56854,464.43533 -28.587186,763.71804 290.1286,667.70934"
id="path3932"
inkscape:connector-curvature="0"
transform="translate(0,62.362)"
sodipodi:nodetypes="cc" />
<g
id="g3912"
transform="translate(135.77207,8.7580749)">
<rect
style="fill:#ffff80;fill-opacity:1;stroke:#000000;stroke-width:3;stroke-miterlimit:4;stroke-dasharray:none"
id="rect3906"
width="71.245293"
height="182.40816"
x="71.750549"
y="383.86893"
transform="scale(-1,1)" />
<rect
transform="scale(-1,1)"
style="fill:#ffffff;fill-opacity:1;stroke:#000000;stroke-width:3;stroke-linecap:round;stroke-linejoin:miter;stroke-miterlimit:4;stroke-opacity:1;stroke-dasharray:none;stroke-dashoffset:0"
id="rect3908"
width="17.685001"
height="105.60473"
x="142.99585"
y="422.27066" />
</g>
<g
id="g4433">
<path
style="fill:none;stroke:#000000;stroke-width:12;stroke-linecap:butt;stroke-linejoin:miter;stroke-miterlimit:4;stroke-opacity:1;stroke-dasharray:none"
d="m 362.49323,671.72961 c 18.98455,-29.48189 58.77439,-35.64061 95.1461,-38.19246 27.73852,-1.94614 63.37724,0.17521 111.7006,23.9176 36.33116,17.85034 74.48918,7.46185 150.2862,-1.80618"
id="path4391"
inkscape:connector-curvature="0"
transform="translate(0,62.362)"
sodipodi:nodetypes="cssc" />
<path
sodipodi:nodetypes="cssc"
transform="translate(0,62.362)"
inkscape:connector-curvature="0"
id="path3938"
d="m 362.49323,671.72961 c 18.98455,-29.48189 58.77439,-35.64061 95.1461,-38.19246 27.73852,-1.94614 63.37724,0.17521 111.7006,23.9176 36.33116,17.85034 74.48918,7.46185 150.2862,-1.80618"
style="fill:none;stroke:#ff00ff;stroke-width:10;stroke-linecap:butt;stroke-linejoin:miter;stroke-miterlimit:4;stroke-opacity:1;stroke-dasharray:none" />
</g>
<g
id="g4441">
<path
style="fill:none;stroke:#000000;stroke-width:12;stroke-linecap:butt;stroke-linejoin:miter;stroke-miterlimit:4;stroke-opacity:1;stroke-dasharray:none"
d="M 329.66113,666.36926 C 283.28702,588.5995 150.06597,734.13369 145.51232,595.83135 140.93783,456.89614 254.10674,541.98461 251.93615,427.83396"
id="path4389"
inkscape:connector-curvature="0"
transform="translate(0,62.362)"
sodipodi:nodetypes="csc" />
<path
sodipodi:nodetypes="csc"
transform="translate(0,62.362)"
inkscape:connector-curvature="0"
id="path3940"
d="M 329.66113,666.36926 C 283.28702,588.5995 150.06597,734.13369 145.51232,595.83135 140.93783,456.89614 254.10674,541.98461 251.93615,427.83396"
style="fill:none;stroke:#0000ff;stroke-width:10;stroke-linecap:butt;stroke-linejoin:miter;stroke-miterlimit:4;stroke-opacity:1;stroke-dasharray:none" />
</g>
<g
id="g4437">
<path
sodipodi:nodetypes="ccc"
inkscape:connector-curvature="0"
id="path4387"
d="m 200.27029,493.34196 c 93.45999,133.65043 324.49176,31.03332 421.80547,107.31147 51.0816,48.7075 73.12754,30.37864 94.88101,34.34312"
style="fill:none;stroke:#000000;stroke-width:12;stroke-linecap:butt;stroke-linejoin:miter;stroke-miterlimit:4;stroke-opacity:1;stroke-dasharray:none" />
<path
style="fill:none;stroke:#ff0000;stroke-width:10;stroke-linecap:butt;stroke-linejoin:miter;stroke-miterlimit:4;stroke-opacity:1;stroke-dasharray:none"
d="m 200.27029,493.34196 c 93.45999,133.65043 324.49176,31.03332 421.80547,107.31147 51.0816,48.7075 73.12754,30.37864 94.88101,34.34312"
id="path3926"
inkscape:connector-curvature="0"
sodipodi:nodetypes="ccc" />
</g>
<g
id="g3053">
<rect
ry="6.6459374"
y="370.10455"
x="165.97723"
height="124.6395"
width="125.89216"
id="rect3051"
style="fill:#b3b3b3;fill-opacity:1;stroke:#000000;stroke-width:3;stroke-linecap:round;stroke-linejoin:miter;stroke-miterlimit:4;stroke-opacity:1;stroke-dasharray:none;stroke-dashoffset:0" />
<rect
rx="0"
ry="6.6459374"
y="409.75247"
x="135.1124"
height="45.343678"
width="187.37898"
id="rect3049"
style="fill:#b3b3b3;fill-opacity:1;stroke:#000000;stroke-width:3;stroke-linecap:round;stroke-linejoin:miter;stroke-miterlimit:4;stroke-opacity:1;stroke-dasharray:none;stroke-dashoffset:0" />
</g>
<g
transform="matrix(-1,0,0,1,641.47691,204.61314)"
id="g3916">
<rect
transform="scale(-1,1)"
y="383.86893"
x="71.750549"
height="182.40816"
width="71.245293"
id="rect3918"
style="fill:#ffff80;fill-opacity:1;stroke:#000000;stroke-width:3;stroke-miterlimit:4;stroke-dasharray:none" />
<rect
y="422.27066"
x="142.99585"
height="105.60473"
width="17.685001"
id="rect3920"
style="fill:#ffffff;fill-opacity:1;stroke:#000000;stroke-width:3;stroke-linecap:round;stroke-linejoin:miter;stroke-miterlimit:4;stroke-opacity:1;stroke-dasharray:none;stroke-dashoffset:0"
transform="scale(-1,1)" />
</g>
<g
id="g4070">
<g
id="g3959">
<path
id="path3951"
d="m 309.45157,730.54832 c 0,7.26789 -5.89178,13.15967 -13.15966,13.15967 -7.26789,0 -13.15967,-5.89178 -13.15967,-13.15967 0,-7.26788 5.89178,-13.15966 13.15967,-13.15966 7.26788,0 13.15966,5.89178 13.15966,13.15966 z"
style="fill:#e6e6e6;fill-opacity:1;stroke:#000000;stroke-width:0;stroke-miterlimit:4;stroke-opacity:1;stroke-dasharray:none"
inkscape:connector-curvature="0" />
<path
style="fill:#4d4d4d;stroke:#666666;stroke-width:3;stroke-linecap:butt;stroke-linejoin:miter;stroke-miterlimit:4;stroke-opacity:1;stroke-dasharray:none"
d="m 287.15295,739.99633 18.27791,-18.896"
id="path3949"
inkscape:connector-curvature="0"
sodipodi:nodetypes="cc" />
<path
inkscape:connector-curvature="0"
style="fill:none;stroke:#000000;stroke-width:0.86842108;stroke-opacity:1"
d="m 309.45158,730.54832 c 0,7.26789 -5.89178,13.15967 -13.15967,13.15967 -7.26788,0 -13.15967,-5.89178 -13.15967,-13.15967 0,-7.26788 5.89179,-13.15966 13.15967,-13.15966 7.26789,0 13.15967,5.89178 13.15967,13.15966 z"
id="path3946" />
</g>
<g
transform="translate(67.112975,0)"
id="g3964">
<path
inkscape:connector-curvature="0"
style="fill:#e6e6e6;fill-opacity:1;stroke:#000000;stroke-width:0;stroke-miterlimit:4;stroke-opacity:1;stroke-dasharray:none"
d="m 309.45157,730.54832 c 0,7.26789 -5.89178,13.15967 -13.15966,13.15967 -7.26789,0 -13.15967,-5.89178 -13.15967,-13.15967 0,-7.26788 5.89178,-13.15966 13.15967,-13.15966 7.26788,0 13.15966,5.89178 13.15966,13.15966 z"
id="path3966" />
<path
sodipodi:nodetypes="cc"
inkscape:connector-curvature="0"
id="path3968"
d="m 287.15295,739.99633 18.27791,-18.896"
style="fill:#4d4d4d;stroke:#666666;stroke-width:3;stroke-linecap:butt;stroke-linejoin:miter;stroke-miterlimit:4;stroke-opacity:1;stroke-dasharray:none" />
<path
id="path3970"
d="m 309.45158,730.54832 c 0,7.26789 -5.89178,13.15967 -13.15967,13.15967 -7.26788,0 -13.15967,-5.89178 -13.15967,-13.15967 0,-7.26788 5.89179,-13.15966 13.15967,-13.15966 7.26789,0 13.15967,5.89178 13.15967,13.15966 z"
style="fill:none;stroke:#000000;stroke-width:0.86842108;stroke-opacity:1"
inkscape:connector-curvature="0" />
</g>
<g
transform="translate(33.556487,0)"
id="g3972">
<path
id="path3974"
d="m 309.45157,730.54832 c 0,7.26789 -5.89178,13.15967 -13.15966,13.15967 -7.26789,0 -13.15967,-5.89178 -13.15967,-13.15967 0,-7.26788 5.89178,-13.15966 13.15967,-13.15966 7.26788,0 13.15966,5.89178 13.15966,13.15966 z"
style="fill:#e6e6e6;fill-opacity:1;stroke:#000000;stroke-width:0;stroke-miterlimit:4;stroke-opacity:1;stroke-dasharray:none"
inkscape:connector-curvature="0" />
<path
style="fill:#4d4d4d;stroke:#666666;stroke-width:3;stroke-linecap:butt;stroke-linejoin:miter;stroke-miterlimit:4;stroke-opacity:1;stroke-dasharray:none"
d="m 287.15295,739.99633 18.27791,-18.896"
id="path3976"
inkscape:connector-curvature="0"
sodipodi:nodetypes="cc" />
<path
inkscape:connector-curvature="0"
style="fill:none;stroke:#000000;stroke-width:0.86842108;stroke-opacity:1"
d="m 309.45158,730.54832 c 0,7.26789 -5.89178,13.15967 -13.15967,13.15967 -7.26788,0 -13.15967,-5.89178 -13.15967,-13.15967 0,-7.26788 5.89179,-13.15966 13.15967,-13.15966 7.26789,0 13.15967,5.89178 13.15967,13.15966 z"
id="path3978" />
</g>
<text
sodipodi:linespacing="125%"
id="text3990"
y="757.26843"
x="291.2919"
style="font-size:16px;font-style:normal;font-variant:normal;font-weight:normal;font-stretch:normal;text-align:start;line-height:125%;letter-spacing:0px;word-spacing:0px;writing-mode:lr-tb;text-anchor:start;fill:#ffffff;fill-opacity:1;stroke:#ffffff;stroke-opacity:1;font-family:Helvetica Neue;-inkscape-font-specification:Sans"
xml:space="preserve"><tspan
y="757.26843"
x="291.2919"
id="tspan3992"
sodipodi:role="line">F</tspan></text>
<text
xml:space="preserve"
style="font-size:16px;font-style:normal;font-variant:normal;font-weight:normal;font-stretch:normal;text-align:start;line-height:125%;letter-spacing:0px;word-spacing:0px;writing-mode:lr-tb;text-anchor:start;fill:#ffffff;fill-opacity:1;stroke:#ffffff;stroke-opacity:1;font-family:Helvetica Neue;-inkscape-font-specification:Sans"
x="357.66089"
y="757.26843"
id="text3994"
sodipodi:linespacing="125%"><tspan
sodipodi:role="line"
id="tspan3996"
x="357.66089"
y="757.26843">B</tspan></text>
<text
sodipodi:linespacing="125%"
id="text3998"
y="757.26843"
x="325.24838"
style="font-size:16px;font-style:normal;font-variant:normal;font-weight:normal;font-stretch:normal;text-align:start;line-height:125%;letter-spacing:0px;word-spacing:0px;writing-mode:lr-tb;text-anchor:start;fill:#ffffff;fill-opacity:1;stroke:#ffffff;stroke-opacity:1;font-family:Helvetica Neue;-inkscape-font-specification:Sans"
xml:space="preserve"><tspan
y="757.26843"
x="325.24838"
id="tspan4000"
sodipodi:role="line">T</tspan></text>
</g>
<rect
style="fill:#000000;fill-opacity:1;stroke:#000000;stroke-width:0;stroke-linecap:round;stroke-linejoin:miter;stroke-miterlimit:4;stroke-opacity:1;stroke-dasharray:none;stroke-dashoffset:0"
id="rect4150"
width="56.350029"
height="13.660613"
x="380.45801"
y="645.10498"
ry="5.549624" />
<g
id="g4324"
transform="matrix(-0.50231935,-0.86468218,0.86468218,-0.50231935,674.02477,1331.9113)">
<path
transform="translate(0,62.362)"
sodipodi:nodetypes="cc"
inkscape:connector-curvature="0"
id="path4321"
d="m 641.24724,378.62954 83.57107,0"
style="fill:none;stroke:#000000;stroke-width:3;stroke-linecap:butt;stroke-linejoin:miter;stroke-miterlimit:4;stroke-opacity:1;stroke-dasharray:none;display:inline" />
<path
style="fill:#000000;fill-opacity:1;stroke:none"
d="m 644.37487,431.85974 0,9.1318 0,9.13181 -41.69615,-9.1318 z"
id="path4319"
inkscape:connector-curvature="0"
sodipodi:nodetypes="ccccc" />
</g>
<g
id="g4328"
transform="translate(-53.035485,402.58755)">
<path
style="fill:none;stroke:#000000;stroke-width:3;stroke-linecap:butt;stroke-linejoin:miter;stroke-miterlimit:4;stroke-opacity:1;stroke-dasharray:none;display:inline"
d="m 641.24724,378.62954 83.57107,0"
id="path4330"
inkscape:connector-curvature="0"
sodipodi:nodetypes="cc"
transform="translate(0,62.362)" />
<path
sodipodi:nodetypes="ccccc"
inkscape:connector-curvature="0"
id="path4332"
d="m 644.37487,431.85974 0,9.1318 0,9.13181 -41.69615,-9.1318 z"
style="fill:#000000;fill-opacity:1;stroke:none" />
</g>
<g
style="font-size:24px;font-style:normal;font-variant:normal;font-weight:normal;font-stretch:normal;text-align:start;line-height:100%;letter-spacing:0px;word-spacing:0px;writing-mode:lr-tb;text-anchor:start;fill:#000000;fill-opacity:1;stroke:none;font-family:Helvetica Neue;-inkscape-font-specification:Helvetica Neue"
id="text4346">
<path
d="m 618.19912,440.4357 0,-5.448 4.56,0 c 0.49599,2e-5 0.95999,0.032 1.392,0.096 0.44799,0.048 0.83999,0.16802 1.176,0.36 0.33599,0.19202 0.59999,0.46402 0.792,0.816 0.19199,0.35202 0.28799,0.83202 0.288,1.44 -10e-6,0.91202 -0.28801,1.60002 -0.864,2.064 -0.56001,0.44801 -1.48801,0.67201 -2.784,0.672 l -4.56,0 m -2.28,-7.368 0,17.136 8.28,0 c 0.84799,0 1.59199,-0.136 2.232,-0.408 0.65599,-0.28799 1.19999,-0.65599 1.632,-1.104 0.44798,-0.46399 0.78398,-0.99199 1.008,-1.584 0.22398,-0.59199 0.33598,-1.19999 0.336,-1.824 -2e-5,-1.05599 -0.28002,-1.95199 -0.84,-2.688 -0.56001,-0.73599 -1.36801,-1.21599 -2.424,-1.44 l 0,-0.048 c 0.81599,-0.31999 1.43999,-0.80799 1.872,-1.464 0.44798,-0.67198 0.67198,-1.46398 0.672,-2.376 -2e-5,-0.86398 -0.20002,-1.59198 -0.6,-2.184 -0.38401,-0.59198 -0.85601,-1.05598 -1.416,-1.392 -0.25601,-0.15998 -0.56801,-0.27998 -0.936,-0.36 -0.35201,-0.08 -0.73601,-0.13598 -1.152,-0.168 -0.41601,-0.048 -0.84001,-0.072 -1.272,-0.072 -0.41601,-0.016 -0.80801,-0.024 -1.176,-0.024 l -6.216,0 m 2.28,15.216 0,-5.928 5.208,0 c 0.47999,10e-6 0.94399,0.048 1.392,0.144 0.44799,0.08 0.83999,0.23201 1.176,0.456 0.35199,0.20801 0.63199,0.49601 0.84,0.864 0.20799,0.36801 0.31199,0.83201 0.312,1.392 -10e-6,0.96001 -0.28801,1.71201 -0.864,2.256 -0.56001,0.54401 -1.34401,0.81601 -2.352,0.816 l -5.712,0"
style="line-height:100%;font-family:Helvetica Neue;-inkscape-font-specification:Helvetica Neue"
id="path4457"
inkscape:connector-curvature="0" />
<path
d="m 635.32424,443.1237 2.904,-7.992 0.048,0 2.856,7.992 -5.808,0 m 1.704,-10.056 -6.672,17.136 2.328,0 1.92,-5.16 7.248,0 1.872,5.16 2.52,0 -6.696,-17.136 -2.52,0"
style="line-height:100%;font-family:Helvetica Neue;-inkscape-font-specification:Helvetica Neue"
id="path4459"
inkscape:connector-curvature="0" />
<path
d="m 659.98274,438.2277 2.28,0 c -0.12801,-0.91198 -0.40001,-1.71198 -0.816,-2.4 -0.41601,-0.70398 -0.93601,-1.28798 -1.56,-1.752 -0.62401,-0.46398 -1.33601,-0.81598 -2.136,-1.056 -0.80001,-0.23998 -1.64801,-0.35998 -2.544,-0.36 -1.312,2e-5 -2.48,0.24002 -3.504,0.72 -1.008,0.46402 -1.856,1.10402 -2.544,1.92 -0.672,0.81602 -1.184,1.77602 -1.536,2.88 -0.352,1.08802 -0.528,2.25601 -0.528,3.504 0,1.24801 0.16,2.41601 0.48,3.504 0.336,1.08801 0.832,2.03201 1.488,2.832 0.656,0.80001 1.48,1.43201 2.472,1.896 0.992,0.448 2.152,0.672 3.48,0.672 2.19199,0 3.91999,-0.59999 5.184,-1.8 1.26399,-1.19999 2.00799,-2.87999 2.232,-5.04 l -2.28,0 c -0.048,0.70401 -0.19201,1.36001 -0.432,1.968 -0.24001,0.60801 -0.57601,1.13601 -1.008,1.584 -0.41601,0.43201 -0.92001,0.77601 -1.512,1.032 -0.57601,0.24001 -1.24001,0.36001 -1.992,0.36 -1.024,10e-6 -1.904,-0.19199 -2.64,-0.576 -0.736,-0.38399 -1.344,-0.89599 -1.824,-1.536 -0.464,-0.65599 -0.808,-1.41599 -1.032,-2.28 -0.224,-0.87999 -0.336,-1.80799 -0.336,-2.784 0,-0.89599 0.112,-1.75998 0.336,-2.592 0.224,-0.83198 0.568,-1.56798 1.032,-2.208 0.48,-0.65598 1.08,-1.17598 1.8,-1.56 0.736,-0.38398 1.616,-0.57598 2.64,-0.576 1.19999,2e-5 2.23199,0.30402 3.096,0.912 0.87999,0.60802 1.44799,1.52002 1.704,2.736"
style="line-height:100%;font-family:Helvetica Neue;-inkscape-font-specification:Helvetica Neue"
id="path4461"
inkscape:connector-curvature="0" />
<path
d="m 665.27849,433.0677 0,17.136 2.28,0 0,-6 2.856,-2.664 6.192,8.664 2.88,0 -7.512,-10.224 7.224,-6.912 -2.952,0 -8.688,8.544 0,-8.544 -2.28,0"
style="line-height:100%;font-family:Helvetica Neue;-inkscape-font-specification:Helvetica Neue"
id="path4463"
inkscape:connector-curvature="0" />
<path
d="m 690.24599,448.2837 0,-13.296 3.84,0 c 1.056,2e-5 1.94399,0.15202 2.664,0.456 0.71999,0.28802 1.30399,0.72002 1.752,1.296 0.46399,0.56002 0.79199,1.24802 0.984,2.064 0.20799,0.80002 0.31199,1.71201 0.312,2.736 -10e-6,1.05601 -0.11201,1.96001 -0.336,2.712 -0.20801,0.73601 -0.48001,1.35201 -0.816,1.848 -0.33601,0.49601 -0.72001,0.88801 -1.152,1.176 -0.41601,0.28801 -0.84001,0.51201 -1.272,0.672 -0.43201,0.14401 -0.84001,0.24001 -1.224,0.288 -0.384,0.032 -0.704,0.048 -0.96,0.048 l -3.792,0 m -2.28,-15.216 0,17.136 5.88,0 c 1.42399,0 2.65599,-0.19999 3.696,-0.6 1.03999,-0.39999 1.89599,-0.97599 2.568,-1.728 0.67199,-0.76799 1.16799,-1.70399 1.488,-2.808 0.31999,-1.11999 0.47999,-2.39999 0.48,-3.84 -10e-6,-2.75198 -0.71201,-4.79998 -2.136,-6.144 -1.42401,-1.34398 -3.45601,-2.01598 -6.096,-2.016 l -5.88,0"
style="line-height:100%;font-family:Helvetica Neue;-inkscape-font-specification:Helvetica Neue"
id="path4465"
inkscape:connector-curvature="0" />
<path
d="m 706.16099,441.6357 c 0,-0.86399 0.112,-1.71198 0.336,-2.544 0.224,-0.84798 0.576,-1.60798 1.056,-2.28 0.48,-0.67198 1.096,-1.20798 1.848,-1.608 0.752,-0.41598 1.648,-0.62398 2.688,-0.624 1.03999,2e-5 1.93599,0.20802 2.688,0.624 0.75199,0.40002 1.36799,0.93602 1.848,1.608 0.47999,0.67202 0.83199,1.43202 1.056,2.28 0.22399,0.83202 0.33599,1.68001 0.336,2.544 -10e-6,0.86401 -0.11201,1.72001 -0.336,2.568 -0.22401,0.83201 -0.57601,1.58401 -1.056,2.256 -0.48001,0.67201 -1.09601,1.21601 -1.848,1.632 -0.75201,0.40001 -1.64801,0.60001 -2.688,0.6 -1.04,10e-6 -1.936,-0.19999 -2.688,-0.6 -0.752,-0.41599 -1.368,-0.95999 -1.848,-1.632 -0.48,-0.67199 -0.832,-1.42399 -1.056,-2.256 -0.224,-0.84799 -0.336,-1.70399 -0.336,-2.568 m -2.28,0 c 0,1.16801 0.168,2.29601 0.504,3.384 0.352,1.07201 0.872,2.02401 1.56,2.856 0.688,0.83201 1.544,1.49601 2.568,1.992 1.024,0.48 2.216,0.72 3.576,0.72 1.35999,0 2.55199,-0.24 3.576,-0.72 1.02399,-0.49599 1.87999,-1.15999 2.568,-1.992 0.68799,-0.83199 1.19999,-1.78399 1.536,-2.856 0.35199,-1.08799 0.52799,-2.21599 0.528,-3.384 -1e-5,-1.16799 -0.17601,-2.28798 -0.528,-3.36 -0.33601,-1.08798 -0.84801,-2.04798 -1.536,-2.88 -0.68801,-0.83198 -1.54401,-1.49598 -2.568,-1.992 -1.02401,-0.49598 -2.21601,-0.74398 -3.576,-0.744 -1.36,2e-5 -2.552,0.24802 -3.576,0.744 -1.024,0.49602 -1.88,1.16002 -2.568,1.992 -0.688,0.83202 -1.208,1.79202 -1.56,2.88 -0.336,1.07202 -0.504,2.19201 -0.504,3.36"
style="line-height:100%;font-family:Helvetica Neue;-inkscape-font-specification:Helvetica Neue"
id="path4467"
inkscape:connector-curvature="0" />
<path
d="m 724.39537,441.6357 c 0,-0.86399 0.112,-1.71198 0.336,-2.544 0.224,-0.84798 0.576,-1.60798 1.056,-2.28 0.47999,-0.67198 1.09599,-1.20798 1.848,-1.608 0.75199,-0.41598 1.64799,-0.62398 2.688,-0.624 1.03999,2e-5 1.93599,0.20802 2.688,0.624 0.75199,0.40002 1.36799,0.93602 1.848,1.608 0.47999,0.67202 0.83198,1.43202 1.056,2.28 0.22398,0.83202 0.33598,1.68001 0.336,2.544 -2e-5,0.86401 -0.11202,1.72001 -0.336,2.568 -0.22402,0.83201 -0.57601,1.58401 -1.056,2.256 -0.48001,0.67201 -1.09601,1.21601 -1.848,1.632 -0.75201,0.40001 -1.64801,0.60001 -2.688,0.6 -1.04001,10e-6 -1.93601,-0.19999 -2.688,-0.6 -0.75201,-0.41599 -1.36801,-0.95999 -1.848,-1.632 -0.48,-0.67199 -0.832,-1.42399 -1.056,-2.256 -0.224,-0.84799 -0.336,-1.70399 -0.336,-2.568 m -2.28,0 c 0,1.16801 0.168,2.29601 0.504,3.384 0.352,1.07201 0.872,2.02401 1.56,2.856 0.688,0.83201 1.54399,1.49601 2.568,1.992 1.02399,0.48 2.21599,0.72 3.576,0.72 1.35999,0 2.55199,-0.24 3.576,-0.72 1.02399,-0.49599 1.87998,-1.15999 2.568,-1.992 0.68798,-0.83199 1.19998,-1.78399 1.536,-2.856 0.35198,-1.08799 0.52798,-2.21599 0.528,-3.384 -2e-5,-1.16799 -0.17602,-2.28798 -0.528,-3.36 -0.33602,-1.08798 -0.84802,-2.04798 -1.536,-2.88 -0.68802,-0.83198 -1.54401,-1.49598 -2.568,-1.992 -1.02401,-0.49598 -2.21601,-0.74398 -3.576,-0.744 -1.36001,2e-5 -2.55201,0.24802 -3.576,0.744 -1.02401,0.49602 -1.88,1.16002 -2.568,1.992 -0.688,0.83202 -1.208,1.79202 -1.56,2.88 -0.336,1.07202 -0.504,2.19201 -0.504,3.36"
style="line-height:100%;font-family:Helvetica Neue;-inkscape-font-specification:Helvetica Neue"
id="path4469"
inkscape:connector-curvature="0" />
<path
d="m 741.30974,433.0677 0,17.136 2.28,0 0,-7.32 5.568,0 c 0.55999,1e-5 1.00799,0.088 1.344,0.264 0.33599,0.16001 0.60799,0.38401 0.816,0.672 0.20799,0.27201 0.35999,0.60001 0.456,0.984 0.096,0.36801 0.17599,0.76001 0.24,1.176 0.08,0.41601 0.12799,0.84001 0.144,1.272 0.016,0.43201 0.032,0.84001 0.048,1.224 0.016,0.36801 0.048,0.70401 0.096,1.008 0.064,0.30401 0.17599,0.54401 0.336,0.72 l 2.544,0 c -0.24001,-0.28799 -0.42401,-0.61599 -0.552,-0.984 -0.11201,-0.38399 -0.20001,-0.78399 -0.264,-1.2 -0.064,-0.41599 -0.10401,-0.83999 -0.12,-1.272 -0.016,-0.43199 -0.04,-0.85599 -0.072,-1.272 -0.048,-0.41599 -0.12001,-0.81599 -0.216,-1.2 -0.08,-0.38399 -0.21601,-0.72799 -0.408,-1.032 -0.17601,-0.31999 -0.42401,-0.59199 -0.744,-0.816 -0.30401,-0.22399 -0.70401,-0.38399 -1.2,-0.48 l 0,-0.048 c 1.03999,-0.28799 1.79199,-0.82399 2.256,-1.608 0.47999,-0.78398 0.71999,-1.69598 0.72,-2.736 -10e-6,-1.39198 -0.46401,-2.48798 -1.392,-3.288 -0.91201,-0.79998 -2.18401,-1.19998 -3.816,-1.2 l -8.064,0 m 7.032,7.896 -4.752,0 0,-5.976 5.664,0 c 1.07199,2e-5 1.84799,0.27202 2.328,0.816 0.47999,0.54402 0.71999,1.24802 0.72,2.112 -10e-6,0.62402 -0.11201,1.13602 -0.336,1.536 -0.20801,0.38402 -0.49601,0.69601 -0.864,0.936 -0.35201,0.22401 -0.76801,0.37601 -1.248,0.456 -0.48001,0.08 -0.98401,0.12001 -1.512,0.12"
style="line-height:100%;font-family:Helvetica Neue;-inkscape-font-specification:Helvetica Neue"
id="path4471"
inkscape:connector-curvature="0" />
<path
d="m 618.19912,464.4357 0,-5.448 4.56,0 c 0.49599,2e-5 0.95999,0.032 1.392,0.096 0.44799,0.048 0.83999,0.16802 1.176,0.36 0.33599,0.19202 0.59999,0.46402 0.792,0.816 0.19199,0.35202 0.28799,0.83202 0.288,1.44 -10e-6,0.91202 -0.28801,1.60002 -0.864,2.064 -0.56001,0.44801 -1.48801,0.67201 -2.784,0.672 l -4.56,0 m -2.28,-7.368 0,17.136 8.28,0 c 0.84799,0 1.59199,-0.136 2.232,-0.408 0.65599,-0.28799 1.19999,-0.65599 1.632,-1.104 0.44798,-0.46399 0.78398,-0.99199 1.008,-1.584 0.22398,-0.59199 0.33598,-1.19999 0.336,-1.824 -2e-5,-1.05599 -0.28002,-1.95199 -0.84,-2.688 -0.56001,-0.73599 -1.36801,-1.21599 -2.424,-1.44 l 0,-0.048 c 0.81599,-0.31999 1.43999,-0.80799 1.872,-1.464 0.44798,-0.67198 0.67198,-1.46398 0.672,-2.376 -2e-5,-0.86398 -0.20002,-1.59198 -0.6,-2.184 -0.38401,-0.59198 -0.85601,-1.05598 -1.416,-1.392 -0.25601,-0.15998 -0.56801,-0.27998 -0.936,-0.36 -0.35201,-0.08 -0.73601,-0.13598 -1.152,-0.168 -0.41601,-0.048 -0.84001,-0.072 -1.272,-0.072 -0.41601,-0.016 -0.80801,-0.024 -1.176,-0.024 l -6.216,0 m 2.28,15.216 0,-5.928 5.208,0 c 0.47999,10e-6 0.94399,0.048 1.392,0.144 0.44799,0.08 0.83999,0.23201 1.176,0.456 0.35199,0.20801 0.63199,0.49601 0.84,0.864 0.20799,0.36801 0.31199,0.83201 0.312,1.392 -10e-6,0.96001 -0.28801,1.71201 -0.864,2.256 -0.56001,0.54401 -1.34401,0.81601 -2.352,0.816 l -5.712,0"
style="line-height:100%;font-family:Helvetica Neue;-inkscape-font-specification:Helvetica Neue"
id="path4473"
inkscape:connector-curvature="0" />
<path
d="m 646.05224,468.0117 0,-10.944 -2.28,0 0,10.944 c -10e-6,1.53601 -0.38401,2.70401 -1.152,3.504 -0.75201,0.78401 -1.85601,1.17601 -3.312,1.176 -1.536,10e-6 -2.712,-0.39199 -3.528,-1.176 -0.816,-0.79999 -1.224,-1.96799 -1.224,-3.504 l 0,-10.944 -2.28,0 0,10.944 c 0,2.28801 0.616,3.96001 1.848,5.016 1.248,1.04 2.976,1.56 5.184,1.56 2.15999,0 3.82399,-0.544 4.992,-1.632 1.16799,-1.10399 1.75199,-2.75199 1.752,-4.944"
style="line-height:100%;font-family:Helvetica Neue;-inkscape-font-specification:Helvetica Neue"
id="path4475"
inkscape:connector-curvature="0" />
<path
d="m 654.40756,458.9877 0,15.216 2.28,0 0,-15.216 5.712,0 0,-1.92 -13.704,0 0,1.92 5.712,0"
style="line-height:100%;font-family:Helvetica Neue;-inkscape-font-specification:Helvetica Neue"
id="path4477"
inkscape:connector-curvature="0" />
<path
d="m 670.59952,458.9877 0,15.216 2.28,0 0,-15.216 5.712,0 0,-1.92 -13.704,0 0,1.92 5.712,0"
style="line-height:100%;font-family:Helvetica Neue;-inkscape-font-specification:Helvetica Neue"
id="path4479"
inkscape:connector-curvature="0" />
<path
d="m 681.81277,465.6357 c -10e-6,-0.86399 0.11199,-1.71198 0.336,-2.544 0.22399,-0.84798 0.57599,-1.60798 1.056,-2.28 0.47999,-0.67198 1.09599,-1.20798 1.848,-1.608 0.75199,-0.41598 1.64799,-0.62398 2.688,-0.624 1.03999,2e-5 1.93598,0.20802 2.688,0.624 0.75198,0.40002 1.36798,0.93602 1.848,1.608 0.47998,0.67202 0.83198,1.43202 1.056,2.28 0.22398,0.83202 0.33598,1.68001 0.336,2.544 -2e-5,0.86401 -0.11202,1.72001 -0.336,2.568 -0.22402,0.83201 -0.57602,1.58401 -1.056,2.256 -0.48002,0.67201 -1.09602,1.21601 -1.848,1.632 -0.75202,0.40001 -1.64801,0.60001 -2.688,0.6 -1.04001,10e-6 -1.93601,-0.19999 -2.688,-0.6 -0.75201,-0.41599 -1.36801,-0.95999 -1.848,-1.632 -0.48001,-0.67199 -0.83201,-1.42399 -1.056,-2.256 -0.22401,-0.84799 -0.33601,-1.70399 -0.336,-2.568 m -2.28,0 c -10e-6,1.16801 0.16799,2.29601 0.504,3.384 0.35199,1.07201 0.87199,2.02401 1.56,2.856 0.68799,0.83201 1.54399,1.49601 2.568,1.992 1.02399,0.48 2.21599,0.72 3.576,0.72 1.35999,0 2.55198,-0.24 3.576,-0.72 1.02398,-0.49599 1.87998,-1.15999 2.568,-1.992 0.68798,-0.83199 1.19998,-1.78399 1.536,-2.856 0.35198,-1.08799 0.52798,-2.21599 0.528,-3.384 -2e-5,-1.16799 -0.17602,-2.28798 -0.528,-3.36 -0.33602,-1.08798 -0.84802,-2.04798 -1.536,-2.88 -0.68802,-0.83198 -1.54402,-1.49598 -2.568,-1.992 -1.02402,-0.49598 -2.21601,-0.74398 -3.576,-0.744 -1.36001,2e-5 -2.55201,0.24802 -3.576,0.744 -1.02401,0.49602 -1.88001,1.16002 -2.568,1.992 -0.68801,0.83202 -1.20801,1.79202 -1.56,2.88 -0.33601,1.07202 -0.50401,2.19201 -0.504,3.36"
style="line-height:100%;font-family:Helvetica Neue;-inkscape-font-specification:Helvetica Neue"
id="path4481"
inkscape:connector-curvature="0" />
<path
d="m 698.70314,457.0677 0,17.136 2.16,0 0,-13.752 0.048,0 8.952,13.752 2.496,0 0,-17.136 -2.16,0 0,13.896 -0.048,0 -9.024,-13.896 -2.424,0"
style="line-height:100%;font-family:Helvetica Neue;-inkscape-font-specification:Helvetica Neue"
id="path4483"
inkscape:connector-curvature="0" />
</g>
<g
style="font-size:24px;font-style:normal;font-variant:normal;font-weight:normal;font-stretch:normal;text-align:start;line-height:100%;letter-spacing:0px;word-spacing:0px;writing-mode:lr-tb;text-anchor:start;fill:#000000;fill-opacity:1;stroke:none;font-family:Helvetica Neue;-inkscape-font-specification:Helvetica Neue"
id="text4352">
<path
d="m -104.07778,234.58643 0,17.136 2.28,0 0,-7.848 7.871997,0 0,-1.92 -7.871997,0 0,-5.448 8.975997,0 0,-1.92 -11.255997,0"
style="line-height:100%;font-family:Helvetica Neue;-inkscape-font-specification:Helvetica Neue"
id="path4534"
inkscape:connector-curvature="0" />
<path
d="m -90.296533,234.58643 0,17.136 2.28,0 0,-7.32 5.568,0 c 0.559989,0 1.007989,0.088 1.344,0.264 0.335988,0.16 0.607988,0.384 0.816,0.672 0.207988,0.272 0.359987,0.6 0.456,0.984 0.09599,0.368 0.175987,0.76 0.24,1.176 0.07999,0.416 0.127987,0.84 0.144,1.272 0.01599,0.432 0.03199,0.84 0.048,1.224 0.01599,0.368 0.04799,0.704 0.096,1.008 0.06399,0.304 0.175987,0.544 0.336,0.72 l 2.544,0 c -0.240016,-0.288 -0.424016,-0.616 -0.552,-0.984 -0.112015,-0.384 -0.200015,-0.784 -0.264,-1.2 -0.06401,-0.416 -0.104015,-0.84 -0.12,-1.272 -0.01601,-0.432 -0.04001,-0.856 -0.072,-1.272 -0.04801,-0.416 -0.120015,-0.816 -0.216,-1.2 -0.08002,-0.384 -0.216015,-0.728 -0.408,-1.032 -0.176014,-0.32 -0.424014,-0.592 -0.744,-0.816 -0.304013,-0.22399 -0.704013,-0.38399 -1.2,-0.48 l 0,-0.048 c 1.039986,-0.28799 1.791986,-0.82399 2.256,-1.608 0.479985,-0.78399 0.719985,-1.69599 0.72,-2.736 -1.5e-5,-1.39199 -0.464015,-2.48799 -1.392,-3.288 -0.912013,-0.79999 -2.184012,-1.19999 -3.816,-1.2 l -8.064,0 m 7.032,7.896 -4.752,0 0,-5.976 5.664,0 c 1.071989,1e-5 1.847988,0.27201 2.328,0.816 0.479987,0.54401 0.719987,1.24801 0.72,2.112 -1.3e-5,0.62401 -0.112013,1.13601 -0.336,1.536 -0.208013,0.38401 -0.496012,0.69601 -0.864,0.936 -0.352012,0.22401 -0.768011,0.37601 -1.248,0.456 -0.48001,0.08 -0.98401,0.12001 -1.512,0.12"
style="line-height:100%;font-family:Helvetica Neue;-inkscape-font-specification:Helvetica Neue"
id="path4536"
inkscape:connector-curvature="0" />
<path
d="m -72.523408,243.15443 c -4e-6,-0.86399 0.111996,-1.71199 0.336,-2.544 0.223996,-0.84799 0.575996,-1.60799 1.056,-2.28 0.479995,-0.67199 1.095994,-1.20799 1.848,-1.608 0.751992,-0.41599 1.647992,-0.62399 2.688,-0.624 1.03999,1e-5 1.935989,0.20801 2.688,0.624 0.751987,0.40001 1.367986,0.93601 1.848,1.608 0.479986,0.67201 0.831985,1.43201 1.056,2.28 0.223985,0.83201 0.335985,1.68001 0.336,2.544 -1.5e-5,0.86401 -0.112015,1.72 -0.336,2.568 -0.224015,0.832 -0.576014,1.584 -1.056,2.256 -0.480014,0.672 -1.096013,1.216 -1.848,1.632 -0.752011,0.4 -1.64801,0.6 -2.688,0.6 -1.040008,0 -1.936008,-0.2 -2.688,-0.6 -0.752006,-0.416 -1.368005,-0.96 -1.848,-1.632 -0.480004,-0.672 -0.832004,-1.424 -1.056,-2.256 -0.224004,-0.848 -0.336004,-1.70399 -0.336,-2.568 m -2.28,0 c -10e-7,1.168 0.167999,2.296 0.504,3.384 0.351998,1.072 0.871997,2.024 1.56,2.856 0.687996,0.832 1.543995,1.496 2.568,1.992 1.023993,0.48 2.215992,0.72 3.576,0.72 1.359989,0 2.551988,-0.24 3.576,-0.72 1.023986,-0.496 1.879985,-1.16 2.568,-1.992 0.687984,-0.832 1.199983,-1.784 1.536,-2.856 0.351983,-1.088 0.527982,-2.216 0.528,-3.384 -1.8e-5,-1.16799 -0.176017,-2.28799 -0.528,-3.36 -0.336017,-1.08799 -0.848016,-2.04799 -1.536,-2.88 -0.688015,-0.83199 -1.544014,-1.49599 -2.568,-1.992 -1.024012,-0.49599 -2.216011,-0.74399 -3.576,-0.744 -1.360008,1e-5 -2.552007,0.24801 -3.576,0.744 -1.024005,0.49601 -1.880004,1.16001 -2.568,1.992 -0.688003,0.83201 -1.208002,1.79201 -1.56,2.88 -0.336001,1.07201 -0.504001,2.19201 -0.504,3.36"
style="line-height:100%;font-family:Helvetica Neue;-inkscape-font-specification:Helvetica Neue"
id="path4538"
inkscape:connector-curvature="0" />
<path
d="m -55.633033,234.58643 0,17.136 2.16,0 0,-13.752 0.048,0 8.952,13.752 2.496,0 0,-17.136 -2.16,0 0,13.896 -0.048,0 -9.024,-13.896 -2.424,0"
style="line-height:100%;font-family:Helvetica Neue;-inkscape-font-specification:Helvetica Neue"
id="path4540"
inkscape:connector-curvature="0" />
<path
d="m -34.377283,236.50643 0,15.216 2.28,0 0,-15.216 5.712,0 0,-1.92 -13.704,0 0,1.92 5.712,0"
style="line-height:100%;font-family:Helvetica Neue;-inkscape-font-specification:Helvetica Neue"
id="path4542"
inkscape:connector-curvature="0" />
<path
d="m -15.547783,249.80243 0,-13.296 3.84,0 c 1.055991,1e-5 1.9439897,0.15201 2.6639997,0.456 0.7199886,0.28801 1.303988,0.72001 1.752,1.296 0.4639871,0.56001 0.7919868,1.24801 0.984,2.064 0.2079864,0.80001 0.3119863,1.71201 0.312,2.736 -1.37e-5,1.056 -0.1120136,1.96 -0.336,2.712 -0.2080132,0.736 -0.4800129,1.352 -0.816,1.848 -0.3360122,0.496 -0.7200119,0.888 -1.152,1.176 -0.416011,0.288 -0.8400106,0.512 -1.272,0.672 -0.4320097,0.144 -0.8400097,0.24 -1.2239997,0.288 -0.384009,0.032 -0.704009,0.048 -0.96,0.048 l -3.792,0 m -2.28,-15.216 0,17.136 5.88,0 c 1.42399,0 2.6559893,-0.2 3.6959997,-0.6 1.0399875,-0.4 1.8959866,-0.976 2.568,-1.728 0.6719853,-0.768 1.1679848,-1.704 1.488,-2.808 0.3199842,-1.12 0.479984,-2.4 0.48,-3.84 -1.6e-5,-2.75199 -0.7120153,-4.79999 -2.136,-6.144 -1.4240124,-1.34399 -3.4560104,-2.01599 -6.0959997,-2.016 l -5.88,0"
style="line-height:100%;font-family:Helvetica Neue;-inkscape-font-specification:Helvetica Neue"
id="path4544"
inkscape:connector-curvature="0" />
<path
d="m 0.36721667,243.15443 c -3.19e-6,-0.86399 0.1119967,-1.71199 0.336,-2.544 0.22399625,-0.84799 0.57599593,-1.60799 1.05600003,-2.28 0.4799949,-0.67199 1.0959943,-1.20799 1.848,-1.608 0.7519928,-0.41599 1.6479919,-0.62399 2.688,-0.624 1.0399898,1e-5 1.9359889,0.20801 2.688,0.624 0.7519874,0.40001 1.3679863,0.93601 1.8480003,1.608 0.479986,0.67201 0.831985,1.43201 1.056,2.28 0.223985,0.83201 0.335985,1.68001 0.336,2.544 -1.5e-5,0.86401 -0.112015,1.72 -0.336,2.568 -0.224015,0.832 -0.576014,1.584 -1.056,2.256 -0.480014,0.672 -1.0960129,1.216 -1.8480003,1.632 -0.7520111,0.4 -1.6480102,0.6 -2.688,0.6 -1.0400081,0 -1.9360072,-0.2 -2.688,-0.6 -0.7520057,-0.416 -1.3680051,-0.96 -1.848,-1.632 -0.4800041,-0.672 -0.83200378,-1.424 -1.05600003,-2.256 -0.2240033,-0.848 -0.33600319,-1.70399 -0.336,-2.568 m -2.27999997,0 c -9e-7,1.168 0.1679989,2.296 0.504,3.384 0.3519982,1.072 0.87199769,2.024 1.55999997,2.856 0.68799634,0.832 1.54399553,1.496 2.56800003,1.992 1.0239934,0.48 2.2159922,0.72 3.576,0.72 1.3599895,0 2.5519883,-0.24 3.576,-0.72 1.0239863,-0.496 1.8799853,-1.16 2.5680003,-1.992 0.687984,-0.832 1.199983,-1.784 1.536,-2.856 0.351983,-1.088 0.527982,-2.216 0.528,-3.384 -1.8e-5,-1.16799 -0.176017,-2.28799 -0.528,-3.36 -0.336017,-1.08799 -0.848016,-2.04799 -1.536,-2.88 -0.688015,-0.83199 -1.544014,-1.49599 -2.5680003,-1.992 -1.0240117,-0.49599 -2.2160105,-0.74399 -3.576,-0.744 -1.3600078,1e-5 -2.5520066,0.24801 -3.576,0.744 -1.0240045,0.49601 -1.88000369,1.16001 -2.56800003,1.992 -0.68800228,0.83201 -1.20800177,1.79201 -1.55999997,2.88 -0.3360011,1.07201 -0.5040009,2.19201 -0.504,3.36"
style="line-height:100%;font-family:Helvetica Neue;-inkscape-font-specification:Helvetica Neue"
id="path4546"
inkscape:connector-curvature="0" />
<path
d="m 18.601592,243.15443 c -4e-6,-0.86399 0.111996,-1.71199 0.336,-2.544 0.223996,-0.84799 0.575996,-1.60799 1.056,-2.28 0.479995,-0.67199 1.095994,-1.20799 1.848,-1.608 0.751992,-0.41599 1.647992,-0.62399 2.688,-0.624 1.03999,1e-5 1.935989,0.20801 2.688,0.624 0.751987,0.40001 1.367986,0.93601 1.848,1.608 0.479986,0.67201 0.831985,1.43201 1.056,2.28 0.223985,0.83201 0.335985,1.68001 0.336,2.544 -1.5e-5,0.86401 -0.112015,1.72 -0.336,2.568 -0.224015,0.832 -0.576014,1.584 -1.056,2.256 -0.480014,0.672 -1.096013,1.216 -1.848,1.632 -0.752011,0.4 -1.64801,0.6 -2.688,0.6 -1.040008,0 -1.936008,-0.2 -2.688,-0.6 -0.752006,-0.416 -1.368005,-0.96 -1.848,-1.632 -0.480004,-0.672 -0.832004,-1.424 -1.056,-2.256 -0.224004,-0.848 -0.336004,-1.70399 -0.336,-2.568 m -2.28,0 c -10e-7,1.168 0.167999,2.296 0.504,3.384 0.351998,1.072 0.871997,2.024 1.56,2.856 0.687996,0.832 1.543995,1.496 2.568,1.992 1.023993,0.48 2.215992,0.72 3.576,0.72 1.359989,0 2.551988,-0.24 3.576,-0.72 1.023986,-0.496 1.879985,-1.16 2.568,-1.992 0.687984,-0.832 1.199983,-1.784 1.536,-2.856 0.351983,-1.088 0.527982,-2.216 0.528,-3.384 -1.8e-5,-1.16799 -0.176017,-2.28799 -0.528,-3.36 -0.336017,-1.08799 -0.848016,-2.04799 -1.536,-2.88 -0.688015,-0.83199 -1.544014,-1.49599 -2.568,-1.992 -1.024012,-0.49599 -2.216011,-0.74399 -3.576,-0.744 -1.360008,1e-5 -2.552007,0.24801 -3.576,0.744 -1.024005,0.49601 -1.880004,1.16001 -2.568,1.992 -0.688003,0.83201 -1.208002,1.79201 -1.56,2.88 -0.336001,1.07201 -0.504001,2.19201 -0.504,3.36"
style="line-height:100%;font-family:Helvetica Neue;-inkscape-font-specification:Helvetica Neue"
id="path4548"
inkscape:connector-curvature="0" />
<path
d="m 35.515967,234.58643 0,17.136 2.28,0 0,-7.32 5.568,0 c 0.559989,0 1.007989,0.088 1.344,0.264 0.335988,0.16 0.607988,0.384 0.816,0.672 0.207988,0.272 0.359987,0.6 0.456,0.984 0.09599,0.368 0.175987,0.76 0.24,1.176 0.07999,0.416 0.127987,0.84 0.144,1.272 0.01599,0.432 0.03199,0.84 0.048,1.224 0.01599,0.368 0.04799,0.704 0.096,1.008 0.06399,0.304 0.175987,0.544 0.336,0.72 l 2.544,0 c -0.240016,-0.288 -0.424016,-0.616 -0.552,-0.984 -0.112015,-0.384 -0.200015,-0.784 -0.264,-1.2 -0.06401,-0.416 -0.104015,-0.84 -0.12,-1.272 -0.01602,-0.432 -0.04002,-0.856 -0.072,-1.272 -0.04801,-0.416 -0.120015,-0.816 -0.216,-1.2 -0.08002,-0.384 -0.216015,-0.728 -0.408,-1.032 -0.176014,-0.32 -0.424014,-0.592 -0.744,-0.816 -0.304013,-0.22399 -0.704013,-0.38399 -1.2,-0.48 l 0,-0.048 c 1.039986,-0.28799 1.791986,-0.82399 2.256,-1.608 0.479985,-0.78399 0.719985,-1.69599 0.72,-2.736 -1.5e-5,-1.39199 -0.464015,-2.48799 -1.392,-3.288 -0.912013,-0.79999 -2.184012,-1.19999 -3.816,-1.2 l -8.064,0 m 7.032,7.896 -4.752,0 0,-5.976 5.664,0 c 1.071989,1e-5 1.847988,0.27201 2.328,0.816 0.479987,0.54401 0.719987,1.24801 0.72,2.112 -1.3e-5,0.62401 -0.112013,1.13601 -0.336,1.536 -0.208013,0.38401 -0.496012,0.69601 -0.864,0.936 -0.352012,0.22401 -0.768011,0.37601 -1.248,0.456 -0.48001,0.08 -0.98401,0.12001 -1.512,0.12"
style="line-height:100%;font-family:Helvetica Neue;-inkscape-font-specification:Helvetica Neue"
id="path4550"
inkscape:connector-curvature="0" />
<path
d="m -101.79778,265.95443 0,-5.448 4.559997,0 c 0.49599,10e-6 0.95999,0.032 1.392,0.096 0.447989,0.048 0.839989,0.16801 1.176,0.36 0.335988,0.19201 0.599988,0.46401 0.792,0.816 0.191987,0.35201 0.287987,0.83201 0.288,1.44 -1.3e-5,0.91201 -0.288012,1.60001 -0.864,2.064 -0.560011,0.44801 -1.48801,0.67201 -2.784,0.672 l -4.559997,0 m -2.28,-7.368 0,17.136 8.279997,0 c 0.847989,0 1.591988,-0.136 2.232,-0.408 0.655987,-0.288 1.199986,-0.656 1.632,-1.104 0.447985,-0.464 0.783985,-0.992 1.008,-1.584 0.223984,-0.592 0.335984,-1.2 0.336,-1.824 -1.6e-5,-1.056 -0.280015,-1.952 -0.84,-2.688 -0.560014,-0.73599 -1.368013,-1.21599 -2.424,-1.44 l 0,-0.048 c 0.815987,-0.31999 1.439986,-0.80799 1.872,-1.464 0.447985,-0.67199 0.671985,-1.46399 0.672,-2.376 -1.5e-5,-0.86399 -0.200015,-1.59199 -0.6,-2.184 -0.384014,-0.59199 -0.856014,-1.05599 -1.416,-1.392 -0.256013,-0.15999 -0.568012,-0.27999 -0.936,-0.36 -0.352012,-0.08 -0.736011,-0.13599 -1.152,-0.168 -0.41601,-0.048 -0.84001,-0.072 -1.272,-0.072 -0.416009,-0.016 -0.808009,-0.024 -1.176,-0.024 l -6.215997,0 m 2.28,15.216 0,-5.928 5.207997,0 c 0.47999,10e-6 0.943989,0.048 1.392,0.144 0.447988,0.08 0.839988,0.232 1.176,0.456 0.351987,0.208 0.631987,0.496 0.84,0.864 0.207987,0.368 0.311987,0.832 0.312,1.392 -1.3e-5,0.96 -0.288013,1.712 -0.864,2.256 -0.560012,0.544 -1.344011,0.816 -2.352,0.816 l -5.711997,0"
style="line-height:100%;font-family:Helvetica Neue;-inkscape-font-specification:Helvetica Neue"
id="path4552"
inkscape:connector-curvature="0" />
<path
d="m -73.944658,269.53043 0,-10.944 -2.28,0 0,10.944 c -1.4e-5,1.536 -0.384013,2.704 -1.152,3.504 -0.752012,0.784 -1.856011,1.176 -3.312,1.176 -1.536008,0 -2.712006,-0.392 -3.528,-1.176 -0.816005,-0.8 -1.224004,-1.968 -1.224,-3.504 l 0,-10.944 -2.28,0 0,10.944 c -2e-6,2.288 0.615997,3.96 1.848,5.016 1.247995,1.04 2.975993,1.56 5.184,1.56 2.159989,0 3.823987,-0.544 4.992,-1.632 1.167985,-1.104 1.751984,-2.752 1.752,-4.944"
style="line-height:100%;font-family:Helvetica Neue;-inkscape-font-specification:Helvetica Neue"
id="path4554"
inkscape:connector-curvature="0" />
<path
d="m -65.589339,260.50643 0,15.216 2.28,0 0,-15.216 5.712,0 0,-1.92 -13.704,0 0,1.92 5.712,0"
style="line-height:100%;font-family:Helvetica Neue;-inkscape-font-specification:Helvetica Neue"
id="path4556"
inkscape:connector-curvature="0" />
<path
d="m -49.397387,260.50643 0,15.216 2.28,0 0,-15.216 5.712,0 0,-1.92 -13.704,0 0,1.92 5.712,0"
style="line-height:100%;font-family:Helvetica Neue;-inkscape-font-specification:Helvetica Neue"
id="path4558"
inkscape:connector-curvature="0" />
<path
d="m -38.184137,267.15443 c -3e-6,-0.86399 0.111997,-1.71199 0.336,-2.544 0.223996,-0.84799 0.575996,-1.60799 1.056,-2.28 0.479995,-0.67199 1.095995,-1.20799 1.848,-1.608 0.751993,-0.41599 1.647992,-0.62399 2.688,-0.624 1.03999,10e-6 1.935989,0.20801 2.688,0.624 0.751988,0.40001 1.367987,0.93601 1.848,1.608 0.479986,0.67201 0.831986,1.43201 1.056,2.28 0.223985,0.83201 0.335985,1.68001 0.336,2.544 -1.5e-5,0.86401 -0.112015,1.72 -0.336,2.568 -0.224014,0.832 -0.576014,1.584 -1.056,2.256 -0.480013,0.672 -1.096012,1.216 -1.848,1.632 -0.752011,0.4 -1.64801,0.6 -2.688,0.6 -1.040008,0 -1.936007,-0.2 -2.688,-0.6 -0.752005,-0.416 -1.368005,-0.96 -1.848,-1.632 -0.480004,-0.672 -0.832004,-1.424 -1.056,-2.256 -0.224003,-0.848 -0.336003,-1.70399 -0.336,-2.568 m -2.28,0 c -10e-7,1.168 0.167999,2.296 0.504,3.384 0.351998,1.072 0.871998,2.024 1.56,2.856 0.687997,0.832 1.543996,1.496 2.568,1.992 1.023994,0.48 2.215992,0.72 3.576,0.72 1.35999,0 2.551989,-0.24 3.576,-0.72 1.023987,-0.496 1.879986,-1.16 2.568,-1.992 0.687984,-0.832 1.199984,-1.784 1.536,-2.856 0.351983,-1.088 0.527983,-2.216 0.528,-3.384 -1.7e-5,-1.16799 -0.176017,-2.28799 -0.528,-3.36 -0.336016,-1.08799 -0.848016,-2.04799 -1.536,-2.88 -0.688014,-0.83199 -1.544013,-1.49599 -2.568,-1.992 -1.024011,-0.49599 -2.21601,-0.74399 -3.576,-0.744 -1.360008,1e-5 -2.552006,0.24801 -3.576,0.744 -1.024004,0.49601 -1.880003,1.16001 -2.568,1.992 -0.688002,0.83201 -1.208002,1.79201 -1.56,2.88 -0.336001,1.07201 -0.504001,2.19201 -0.504,3.36"
style="line-height:100%;font-family:Helvetica Neue;-inkscape-font-specification:Helvetica Neue"
id="path4560"
inkscape:connector-curvature="0" />
<path
d="m -21.293762,258.58643 0,17.136 2.16,0 0,-13.752 0.048,0 8.952,13.752 2.4960002,0 0,-17.136 -2.16,0 0,13.896 -0.048,0 -9.0240002,-13.896 -2.424,0"
style="line-height:100%;font-family:Helvetica Neue;-inkscape-font-specification:Helvetica Neue"
id="path4562"
inkscape:connector-curvature="0" />
</g>
<g
transform="matrix(-0.50231935,-0.86468218,0.86468218,-0.50231935,-49.186398,1136.6442)"
id="g4358">
<path
style="fill:none;stroke:#000000;stroke-width:3;stroke-linecap:butt;stroke-linejoin:miter;stroke-miterlimit:4;stroke-opacity:1;stroke-dasharray:none;display:inline"
d="m 641.24724,378.62954 83.57107,0"
id="path4360"
inkscape:connector-curvature="0"
sodipodi:nodetypes="cc"
transform="translate(0,62.362)" />
<path
sodipodi:nodetypes="ccccc"
inkscape:connector-curvature="0"
id="path4362"
d="m 644.37487,431.85974 0,9.1318 0,9.13181 -41.69615,-9.1318 z"
style="fill:#000000;fill-opacity:1;stroke:none" />
</g>
<g
style="font-size:24px;font-style:normal;font-variant:normal;font-weight:normal;font-stretch:normal;text-align:start;line-height:125%;letter-spacing:0px;word-spacing:0px;writing-mode:lr-tb;text-anchor:start;fill:#000000;fill-opacity:1;stroke:none;font-family:Helvetica Neue;-inkscape-font-specification:Sans"
id="text4364">
<path
d="m 697.78681,839.61711 2.66,0 c -0.14935,-1.06398 -0.46668,-1.99732 -0.952,-2.8 -0.48535,-0.82131 -1.09201,-1.50265 -1.82,-2.044 -0.72801,-0.54131 -1.55868,-0.95198 -2.492,-1.232 -0.93334,-0.27998 -1.92267,-0.41998 -2.968,-0.42 -1.53067,2e-5 -2.89334,0.28002 -4.088,0.84 -1.176,0.54135 -2.16533,1.28802 -2.968,2.24 -0.784,0.95202 -1.38133,2.07202 -1.792,3.36 -0.41066,1.26935 -0.616,2.63201 -0.616,4.088 0,1.45601 0.18667,2.81868 0.56,4.088 0.392,1.26934 0.97067,2.37067 1.736,3.304 0.76533,0.93334 1.72667,1.67067 2.884,2.212 1.15733,0.52267 2.51066,0.784 4.06,0.784 2.55732,0 4.57332,-0.7 6.048,-2.1 1.47465,-1.4 2.34265,-3.35999 2.604,-5.88 l -2.66,0 c -0.056,0.82134 -0.22401,1.58667 -0.504,2.296 -0.28001,0.70934 -0.67201,1.32534 -1.176,1.848 -0.48534,0.504 -1.07334,0.90534 -1.764,1.204 -0.67201,0.28 -1.44667,0.42 -2.324,0.42 -1.19467,0 -2.22134,-0.224 -3.08,-0.672 -0.85867,-0.448 -1.568,-1.04533 -2.128,-1.792 -0.54133,-0.76533 -0.94267,-1.65199 -1.204,-2.66 -0.26133,-1.02666 -0.392,-2.10932 -0.392,-3.248 0,-1.04532 0.13067,-2.05332 0.392,-3.024 0.26133,-0.97065 0.66267,-1.82932 1.204,-2.576 0.56,-0.76532 1.26,-1.37198 2.1,-1.82 0.85866,-0.44798 1.88533,-0.67198 3.08,-0.672 1.39999,2e-5 2.60399,0.35469 3.612,1.064 1.02666,0.70935 1.68932,1.77335 1.988,3.192"
style="font-size:28px"
id="path4446"
inkscape:connector-curvature="0" />
<path
d="m 703.96519,833.59711 0,19.992 2.66,0 0,-9.156 10.528,0 0,9.156 2.66,0 0,-19.992 -2.66,0 0,8.596 -10.528,0 0,-8.596 -2.66,0"
style="font-size:28px"
id="path4448"
inkscape:connector-curvature="0" />
<path
d="m 724.31156,833.59711 0,19.992 2.66,0 0,-19.992 -2.66,0"
style="font-size:28px"
id="path4450"
inkscape:connector-curvature="0" />
<path
d="m 731.529,833.59711 0,19.992 2.52,0 0,-16.632 0.056,0 6.244,16.632 2.268,0 6.244,-16.632 0.056,0 0,16.632 2.52,0 0,-19.992 -3.64,0 -6.328,16.8 -6.3,-16.8 -3.64,0"
style="font-size:28px"
id="path4452"
inkscape:connector-curvature="0" />
<path
d="m 755.86363,833.59711 0,19.992 13.888,0 0,-2.24 -11.228,0 0,-6.916 10.388,0 0,-2.24 -10.388,0 0,-6.356 11.144,0 0,-2.24 -13.804,0"
style="font-size:28px"
id="path4454"
inkscape:connector-curvature="0" />
</g>
</g>
</svg>
